<?xml version="1.0" standalone="no"?>
<!DOCTYPE svg PUBLIC "-//W3C//DTD SVG 1.1//EN" "http://www.w3.org/Graphics/SVG/1.1/DTD/svg11.dtd" >
<svg xmlns="http://www.w3.org/2000/svg">
<metadata>Generated by IcoMoon</metadata>
<defs>
<font id="dub_icon" horiz-adv-x="1024">
<font-face units-per-em="1024" ascent="960" descent="-64" />
<missing-glyph horiz-adv-x="1024" />
<glyph unicode="&#x20;" horiz-adv-x="512" d="" />
<glyph unicode="&#xe900;" glyph-name="ad_free" d="M946.47 873.373c12.493-12.497 12.493-32.758 0-45.255l-28.915-28.908c26.054-23.431 42.445-57.407 42.445-95.21v-512c0-70.694-57.306-128-128-128l-649.344 0.378-50.774-50.848c-12.497-12.493-32.758-12.493-45.255 0-12.497 12.499-12.497 32.762 0 45.254l29.853 29.856c-31.817 23.29-52.481 60.909-52.481 103.36v512c0 70.692 57.308 128 128 128h640c8.653 0 17.101-0.858 25.274-2.494l43.942 43.867c12.493 12.497 32.755 12.497 45.254 0zM872.16 753.832l-165.779-165.77c9.568-4.922 18.138-11.012 25.715-18.271 12.16-11.648 21.504-26.304 28.032-43.968s9.792-38.528 9.792-62.592c0-23.808-3.264-44.672-9.792-62.592s-15.744-32.832-27.648-44.736c-11.904-11.904-26.304-20.864-43.2-26.88s-35.84-9.024-56.832-9.024h-81.024l-0.064 113.081-76.992-76.992 11.648-36.089-47.68 0.057-192-191.999 585.664-0.058c32.819 0 59.872 24.704 63.571 56.538l0.429 7.462v512c0 20.136-9.299 38.1-23.84 49.832zM795.84 768.057l-603.84-0.057c-32.822 0-59.873-24.707-63.569-56.536l-0.431-7.464v-512c0-24.858 14.171-46.406 34.874-57.005l246.662 246.758-3.008 11.207h-92.16l-19.968-72.96h-57.6l91.008 284.16h66.816l57.728-179.591 99.008 99.008 0.064 80.583 80.512-0.007 163.904 163.904zM669.12 550.841l-60.928-60.928 0.064-124.217h17.664c13.312 0 25.28 1.856 35.904 5.568s19.648 9.472 27.072 17.28c7.424 7.808 13.12 17.856 17.088 30.144s5.952 27.136 5.952 44.544c0 17.408-1.984 32.192-5.952 44.352s-9.664 22.016-17.088 29.568c-7.424 7.552-16.448 13.056-27.072 16.512l7.296-2.823zM360.832 561.152h-1.536l-5.568-23.472-5.952-23.568c-4.096-15.744-8.32-31.040-12.672-45.888l-8.448-31.104h67.584l-8.448 31.104-6.384 22.656-6.096 23.424c-3.968 15.872-8.128 31.488-12.48 46.848z" />
<glyph unicode="&#xe901;" glyph-name="add" d="M512 800c17.673 0 32-14.327 32-32v-288h288c17.67 0 32-14.327 32-32s-14.33-32-32-32h-288v-288c0-17.67-14.327-32-32-32s-32 14.33-32 32v288h-288c-17.673 0-32 14.327-32 32s14.327 32 32 32h288v288c0 17.673 14.327 32 32 32z" />
<glyph unicode="&#xe902;" glyph-name="announcement" d="M149.333 866.643c8.305 0 16.566-1.212 24.521-3.599l530.146-159.045 128 0.001c70.694 0 128-57.308 128-128v-128c0-70.692-57.306-128-128-128l-128 0.019v-157.375c0-70.694-57.306-128-128-128-70.692 0-128 57.306-128 128v80.576l-274.147-82.266c-45.14-13.542-92.712 12.077-106.255 57.216-2.387 7.955-3.599 16.218-3.599 24.518v538.621c0 47.128 38.205 85.333 85.333 85.333zM640 300.819l-128-38.4v-99.776c0-32.819 24.707-59.872 56.536-63.571l7.464-0.429c32.822 0 59.873 24.704 63.569 56.538l0.431 7.462v138.176zM149.333 802.643c-10.309 0-18.911-7.313-20.9-17.034l-0.433-4.3v-538.621c0-2.074 0.303-4.141 0.9-6.125 2.962-9.875 12.438-16.013 22.321-15.13l4.243 0.826 484.536 145.357v288.832l-486.042 145.687-4.625 0.508zM832 640h-128v-256h128c32.819 0 59.872 24.707 63.571 56.536l0.429 7.464v128c0 32.822-24.704 59.873-56.538 63.569l-7.462 0.431z" />
<glyph unicode="&#xe903;" glyph-name="apple" d="M684.077 724.22l14.515-0.804c69.19-2.242 133.312-38.134 173.018-96.852-62.656-39.885-101.21-110.223-102.157-186.372 0.090-86.154 49.914-163.904 126.547-197.466-14.739-49.574-36.954-96.422-65.824-138.81-38.771-60.058-79.418-118.726-143.942-119.814-62.69-1.498-83.759 38.208-155.665 38.208-72.58 0-95.036-37.12-155.164-39.706-61.446-2.355-108.405 64.096-148.586 123.59-80.309 121.491-142.844 342.38-59.007 492.68 39.369 73.254 112.979 119.738 193.898 122.445 61.501 1.31 118.614-43.008 156.426-43.008 37.094 0 107.665 53.016 180.456 45.104l-14.515 0.804zM699.354 960c4.198-56.747-13.133-112.954-48.314-156.683-34.132-43.956-85.846-69.275-140.313-68.694-3.464 55.114 14.372 109.393 49.579 150.882 35.654 42.051 85.3 68.65 139.048 74.495z" />
<glyph unicode="&#xe904;" glyph-name="appStore" d="M1024 448c0-282.771-229.229-512-512-512s-512 229.229-512 512c0 282.77 229.23 512 512 512s512-229.23 512-512zM586.899 695.012c24.408 29.301 36.433 66.963 33.521 104.988-37.29-3.917-71.736-21.739-96.474-49.916-24.428-27.8-36.803-64.171-34.399-101.1 37.791-0.389 73.672 16.575 97.352 46.029zM669.056 451.696c0.659 51.025 27.411 98.156 70.88 124.881-27.546 39.344-72.032 63.395-120.041 64.897-30.895 3.243-61.212-8.79-85.988-18.623-15.729-6.243-29.225-11.599-39.219-11.599-11.369 0-25.253 5.577-40.81 11.825-20.342 8.171-43.544 17.49-67.724 16.993-56.144-1.814-107.217-32.961-134.532-82.046-58.169-100.71-14.78-248.718 40.941-330.126 27.878-39.866 60.46-84.39 103.093-82.81 19.34 0.8 33.062 6.573 47.236 12.538 16.402 6.906 33.408 14.061 60.422 14.061 25.471 0 41.748-6.931 57.369-13.587 14.975-6.381 29.347-12.499 50.637-12.013 44.763 0.73 72.968 40.045 99.873 80.282 20.026 28.403 35.443 59.795 45.664 93.011-53.165 22.491-87.738 74.588-87.802 132.317z" />
<glyph unicode="&#xe905;" glyph-name="flip" d="M271.406 450.199c17.673 0 32-14.326 32-32v-59.648l351.999-0.031c17.677 0 32-14.326 32-32 0-17.676-14.323-31.999-32-31.999l-351.999 0.032v-59.712c0-7.488-2.625-14.733-7.417-20.486-11.315-13.574-31.492-15.411-45.069-4.096l-110.014 91.68c-1.487 1.235-2.858 2.611-4.097 4.096-11.314 13.574-9.48 33.754 4.097 45.068l110.014 91.679c5.751 4.792 13 7.417 20.486 7.417zM736 706.199c7.488 0 14.733-2.625 20.486-7.417l110.016-91.679c13.574-11.314 15.411-31.492 4.096-45.069-1.242-1.487-2.611-2.858-4.096-4.097l-110.016-91.679c-13.574-11.314-33.754-9.48-45.069 4.097-4.794 5.751-7.418 13-7.418 20.486v59.709l-351.999-0.031c-17.674 0-32 14.327-32 32s14.326 32 32 32l351.999 0.031v59.648c0 17.674 14.33 32 32 32z" />
<glyph unicode="&#xe906;" glyph-name="fold" d="M839.181 281.939c10.829 11.379 11.635 28.646 2.694 40.9l-3.814 4.339-302.563 288c-10.776 10.257-26.923 11.574-39.078 3.929l-4.938-3.825-305.436-288c-12.858-12.127-13.453-32.377-1.329-45.235 10.777-11.43 27.976-13.171 40.696-4.902l4.539 3.571 283.391 267.187 280.595-267.085c11.379-10.829 28.646-11.635 40.902-2.694l4.339 3.814z" />
<glyph unicode="&#xe907;" glyph-name="next" d="M363.951 792.941c12.244 9.842 29.52 9.204 40.984-0.733l4.006-4.16 256-318.489c8.038-9.999 9.216-23.628 3.514-34.692l-3.424-5.289-255.997-321.508c-11.009-13.83-31.14-16.115-44.966-5.101-12.29 9.779-15.46 26.778-8.28 40.141l3.18 4.826 240.010 301.536-239.917 298.48c-9.842 12.244-9.204 29.52 0.733 40.984l4.16 4.005z" />
<glyph unicode="&#xe908;" glyph-name="previous" d="M660.045 792.941c-12.243 9.842-29.518 9.204-40.982-0.733l-4.005-4.16-256-318.489c-8.037-9.999-9.213-23.628-3.514-34.692l3.422-5.289 256-321.508c11.009-13.83 31.14-16.115 44.964-5.101 12.294 9.779 15.462 26.778 8.282 40.141l-3.181 4.826-240.008 301.536 239.918 298.48c9.843 12.244 9.203 29.52-0.736 40.984l-4.16 4.005z" />
<glyph unicode="&#xe909;" glyph-name="refresh" d="M865.632 450.904c-1.562 228.414-187.206 413.096-415.987 413.096-229.751 0-416-186.25-416-416 0-229.754 186.25-416 416-416 111.804 0 216.666 44.352 294.157 121.843 12.499 12.499 12.499 32.755 0 45.254s-32.762 12.499-45.254 0c-65.608-65.606-154.247-103.098-248.902-103.098-194.404 0-352 157.594-352 352 0 194.404 157.596 352 352 352l15.679-0.343c187.13-8.202 336.321-162.507 336.321-351.657l0.403-4.532-90.208 70.45-4.851 3.135c-13.427 7.055-30.394 3.729-40.064-8.65-10.88-13.926-8.416-34.037 5.51-44.918l151.302-118.207 4.851-3.135c13.427-7.055 30.394-3.729 40.064 8.65l118.208 151.298 3.136 4.851c7.053 13.431 3.731 30.396-8.653 40.067l-4.851 3.135c-13.427 7.055-30.394 3.729-40.064-8.65l-70.797-90.591zM865.645 448l-0.013 2.904c0.006-0.967 0.013-1.935 0.013-2.904z" />
<glyph unicode="&#xe90a;" glyph-name="spread_face" d="M343.771 288h336.575c17.67 0 32 14.33 32 32 0 5.657-1.498 11.213-4.346 16.101l-167.974 288.492c-8.892 15.273-28.483 20.445-43.756 11.553-4.77-2.778-8.741-6.742-11.526-11.508l-168.602-288.492c-8.917-15.259-3.777-34.86 11.482-43.775 4.899-2.861 10.472-4.371 16.147-4.371z" />
<glyph unicode="&#xe90b;" glyph-name="spread" d="M184.822 614.063c-10.831-11.379-11.64-28.647-2.695-40.902l3.811-4.339 302.564-288.003c10.776-10.253 26.923-11.571 39.078-3.93l4.938 3.827 305.434 288.001c12.858 12.125 13.453 32.377 1.331 45.236-10.778 11.429-27.981 13.169-40.698 4.9l-4.538-3.571-283.392-267.186-280.593 267.082c-11.379 10.831-28.647 11.64-40.902 2.695l-4.339-3.811z" />
<glyph unicode="&#xe90c;" glyph-name="top" d="M496.42 811.107c12.155 7.645 28.302 6.328 39.078-3.929l302.563-288 3.814-4.339c8.941-12.255 8.134-29.523-2.694-40.902l-4.339-3.811c-12.256-8.945-29.523-8.136-40.902 2.695l-249.939 237.898v-614.72c0-17.67-14.327-32-32-32s-32 14.33-32 32v612.48l-250.047-235.762-4.539-3.571c-12.72-8.27-29.919-6.53-40.696 4.9-12.125 12.858-11.53 33.111 1.329 45.235l305.436 288 4.938 3.825z" />
<glyph unicode="&#xe90d;" glyph-name="undo" d="M280.988 531.989c9.814-12.267 9.137-29.541-0.828-40.982l-4.17-3.996c-12.267-9.814-29.541-9.137-40.982 0.828l-3.996 4.169-128.931 161.218c-0.763 1.052-1.464 2.152-2.097 3.295l3.027-4.513c-1.726 2.157-3.133 4.483-4.222 6.913-0.456 1.005-0.854 2.034-1.2 3.087-0.275 0.856-0.517 1.714-0.723 2.579-0.233 0.955-0.423 1.964-0.565 2.989-0.14 1.034-0.23 2.042-0.273 3.050-0.020 0.447-0.029 0.908-0.029 1.372l0.029 1.372c0.044 1.030 0.138 2.059 0.281 3.082l-0.31-4.454c0 2.611 0.312 5.148 0.902 7.578 0.195 0.783 0.426 1.598 0.691 2.405 0.342 1.060 0.741 2.090 1.19 3.092 0.374 0.824 0.779 1.634 1.219 2.429 0.615 1.117 1.316 2.217 2.079 3.269 0.298 0.408 0.609 0.815 0.931 1.218l128 160c11.040 13.8 31.178 16.038 44.978 4.998s16.038-31.178 4.997-44.979l-86.492-108.008 413.504-0.001c176.73 0 320-143.268 320-320 0-172.082-135.827-312.434-306.119-319.704l-13.881-0.294h-416c-17.673 0-32 14.323-32 32 0 15.706 11.32 28.774 26.248 31.482l5.752 0.518h416c141.382 0 256 114.611 256 255.999 0 137.101-107.776 249.029-243.223 255.687l-12.777 0.313-413.44 0.001 86.428-108.011z" />
<glyph unicode="&#xe90e;" glyph-name="birthday" d="M537.444 915.407l-0.102 0.133c-5.996 7.775-15.228 12.368-25.046 12.459s-19.134-4.33-25.272-11.993l-0.108-0.134-0.244-0.307-0.884-1.117c-0.758-0.962-1.847-2.353-3.221-4.128-2.746-3.548-6.634-8.642-11.285-14.924-9.279-12.532-21.709-29.95-34.197-49.368-12.419-19.311-25.28-41.192-35.143-62.573-9.444-20.473-17.942-44.228-17.942-66.148 0-37.743 14.056-69.683 38.659-91.923 16.249-14.689 36.056-24.228 57.341-28.907v-84.477h-224c-70.692 0-128-57.308-128-128v-256c0-70.694 57.308-128 128-128h512c70.694 0 128 57.306 128 128v256c0 70.692-57.306 128-128 128h-224v84.817c54.14 12.963 96 58.493 96 120.49 0 21.037-8.724 44.428-18 64.311-9.809 21.027-22.601 42.953-34.964 62.477-12.433 19.634-24.812 37.429-34.052 50.284-4.632 6.443-8.502 11.68-11.231 15.33-1.365 1.826-2.447 3.256-3.197 4.243l-0.872 1.144-0.239 0.312zM471.505 779.092c18.294 33.359 40.495 64.263 40.495 64.263s64.213-92.75 64.213-128.214c0-35.464-28.749-58.47-64.213-58.47-8.554 0-16.717 1.339-24.18 3.868-8.904 2.762-16.396 7.036-22.242 12.32-5.359 4.845-9.962 11.088-13.112 19.011-3.017 6.94-4.679 14.746-4.679 23.272 0 2.394 0.244 4.979 0.702 7.724 1.227 7.826 4.83 19.173 11.569 33.782 3.363 7.29 7.239 14.833 11.447 22.445zM768 448c35.347 0 64-28.654 64-64v-32.001l-9.6-12.8c-11.2-14.934-33.6-14.934-44.8 0-36.8 49.066-110.4 49.066-147.2 0-11.2-14.934-33.6-14.934-44.8 0-36.8 49.066-110.4 49.066-147.2 0-11.2-14.934-33.6-14.934-44.8 0-36.8 49.066-110.4 49.066-147.2 0-11.2-14.934-33.6-14.934-44.8 0l-9.6 12.799v32.001c0 35.346 28.654 64 64 64h512zM192 128v141.69c36.471-13.44 79.964-3.072 105.6 31.11 11.2 14.931 33.6 14.931 44.8 0 36.8-49.069 110.4-49.069 147.2 0 11.2 14.931 33.6 14.931 44.8 0 36.8-49.069 110.4-49.069 147.2 0 11.2 14.931 33.6 14.931 44.8 0 25.638-34.182 69.126-44.55 105.6-31.11v-141.69c0-35.347-28.653-64-64-64h-512c-35.346 0-64 28.653-64 64z" />
<glyph unicode="&#xe90f;" glyph-name="book_fill" d="M896 789.332h-597.333c-22.632 0-44.337-8.99-60.34-24.993s-24.994-37.708-24.994-60.34c0-22.632 8.991-44.337 24.994-60.34s37.708-24.993 60.34-24.993h597.333v-554.666c0-11.315-4.493-22.17-12.499-30.17-8-8-18.854-12.499-30.17-12.499h-554.664c-45.264 0-88.673 17.984-120.68 49.99s-49.987 75.411-49.987 120.678v511.999c0 45.263 17.981 88.673 49.987 120.68s75.416 49.987 120.68 49.987h554.664c11.315 0 22.17-4.495 30.17-12.497 8.006-8.001 12.499-18.854 12.499-30.17v-42.667zM853.331 661.332h-554.664c-11.316 0-22.168 4.495-30.17 12.497s-12.497 18.854-12.497 30.17c0 11.316 4.495 22.168 12.497 30.17s18.854 12.497 30.17 12.497h554.664v-85.334z" />
<glyph unicode="&#xe910;" glyph-name="book" d="M832 789.333c0 58.911-47.757 106.667-106.669 106.667h-426.664c-58.911 0-106.667-47.756-106.667-106.667v-640.002c0-82.47 66.859-149.331 149.333-149.331h458.667c17.67 0 32 14.33 32 32s-14.33 32-32 32h-458.667c-47.128 0-85.333 38.208-85.333 85.331v21.338c0 47.123 38.205 85.331 85.333 85.331h426.667c35.347 0 64 28.653 64 64v469.333zM704 832h21.331c23.565 0 42.669-19.103 42.669-42.667v-443.733c0-14.138-11.462-25.6-25.6-25.6h-401.067c-31.728 0-61.145-9.894-85.333-26.765v496.098c0 23.564 19.103 42.667 42.667 42.667h277.333v-176.549c0-5.702 6.893-8.557 10.925-4.525l48.549 48.549c2.499 2.499 6.554 2.499 9.050 0l48.55-48.549c4.032-4.032 10.925-1.176 10.925 4.525v176.549zM320 160c0 17.67 14.327 32 32 32h448c17.67 0 32-14.33 32-32s-14.33-32-32-32h-448c-17.673 0-32 14.33-32 32z" />
<glyph unicode="&#xe911;" glyph-name="bookmark_activated" d="M704 896c70.694 0 128-57.308 128-128v-715.885c0-35.347-28.653-64.006-64-64.006-12.096 0-23.949 3.437-34.176 9.894l-187.649 118.515c-20.876 13.19-47.475 13.19-68.351 0l-187.649-118.515c-29.885-18.874-69.412-9.946-88.287 19.936-6.46 10.234-9.889 22.080-9.889 34.176v715.885c0 70.692 57.308 128 128 128h384z" />
<glyph unicode="&#xe912;" glyph-name="bookmark_inactive" d="M704 896c70.694 0 128-57.308 128-128v-715.885c0-35.347-28.653-64.006-64-64.006-12.096 0-23.949 3.437-34.176 9.894l-187.649 118.515c-20.876 13.19-47.475 13.19-68.351 0l-187.649-118.515c-29.885-18.874-69.412-9.946-88.287 19.936-6.46 10.234-9.889 22.080-9.889 34.176v715.885c0 70.692 57.308 128 128 128h384zM704 832h-384c-32.822 0-59.873-24.707-63.569-56.536l-0.431-7.464v-715.885l187.649 118.515c38.541 24.346 86.833 26.214 126.874 5.619l9.828-5.619 187.649-118.515v715.885c0 32.822-24.704 59.873-56.538 63.569l-7.462 0.431z" />
<glyph unicode="&#xe913;" glyph-name="calendar" d="M288 896c-17.673 0-32-14.327-32-32v-32c-70.692 0-128-57.308-128-128v-512c0-70.694 57.308-128 128-128h512c70.694 0 128 57.306 128 128v512c0 70.692-57.306 128-128 128v32c0 17.673-14.33 32-32 32s-32-14.327-32-32v-32h-384v32c0 17.673-14.327 32-32 32zM832 640h-640v64c0 35.346 28.654 64 64 64h512c35.347 0 64-28.654 64-64v-64zM192 576h640v-384c0-35.347-28.653-64-64-64h-512c-35.346 0-64 28.653-64 64v384z" />
<glyph unicode="&#xe914;" glyph-name="call" d="M184.691 803.679l-11.006-11.006c-19.722-19.722-27.748-36.859-28.47-50.853-3.421-66.302 13.156-228.183 220.407-435.433 203.776-203.776 369.265-228.691 441.867-228.41 17.030 0.064 37.242 9.12 59.053 30.931l6.458 6.458 45.261-45.254-6.464-6.458c-28.422-28.422-63.866-49.523-104.064-49.677-90.061-0.346-271.816 31.603-487.365 247.155-219.337 219.336-243.473 398.586-239.067 483.985 1.86 36.051 21.604 67.284 47.131 92.81l11.005 11.006c61.341 61.34 160.793 61.34 222.133 0l28.884-28.884c59.599-59.599 60.901-156.3 3.754-218.253-28.574-30.976-27.923-79.327 1.876-109.126l165.911-165.91c29.8-29.801 78.147-30.454 109.123-1.877 61.958 57.148 158.656 55.846 218.253-3.753l28.89-28.881c61.338-61.344 61.338-160.794 0-222.138l-45.261 45.254c36.352 36.352 36.352 95.277 0 131.629l-28.883 28.883c-34.97 34.97-92.531 36.154-129.6 1.965-55.866-51.533-143.35-50.765-197.777 3.661l-165.91 165.913c-54.427 54.426-55.193 141.914-3.665 197.775 34.193 37.068 33.006 94.632-1.966 129.604l-28.883 28.884c-36.347 36.347-95.277 36.347-131.624 0z" />
<glyph unicode="&#xe915;" glyph-name="camera" d="M609.148 896c45.528 0 87.627-24.18 110.564-63.505l37.6-64.495h74.688c70.694 0 128-57.308 128-128v-448c0-70.694-57.306-128-128-128h-640c-70.692 0-128 57.306-128 128v448c0 70.692 57.308 128 128 128h74.624l37.665 64.495c22.939 39.324 65.038 63.505 110.563 63.505h194.295zM609.148 832h-194.295c-20.233 0-39.113-9.553-51.126-25.504l-4.172-6.276-56.193-96.22h-111.363c-32.822 0-59.873-24.707-63.569-56.536l-0.431-7.464v-448c0-32.819 24.707-59.872 56.536-63.571l7.464-0.429h640c32.819 0 59.872 24.704 63.571 56.538l0.429 7.462v448c0 32.822-24.704 59.873-56.538 63.569l-7.462 0.431h-111.456l-56.115 96.248c-10.195 17.477-27.96 28.972-47.768 31.311l-7.513 0.442zM512 640c106.038 0 192-85.962 192-192s-85.962-192-192-192c-106.038 0-192 85.962-192 192s85.962 192 192 192zM512 576c-70.692 0-128-57.308-128-128s57.308-128 128-128c70.692 0 128 57.308 128 128s-57.308 128-128 128z" />
<glyph unicode="&#xe916;" glyph-name="card" d="M192 832h640c70.694 0 128-57.308 128-128v-512c0-70.694-57.306-128-128-128h-640c-70.692 0-128 57.306-128 128v512c0 70.692 57.308 128 128 128zM896 192v320h-768v-320c0-35.347 28.654-64 64-64h640c35.347 0 64 28.653 64 64zM192 768c-35.346 0-64-28.654-64-64v-64h768v64c0 35.346-28.653 64-64 64h-640z" />
<glyph unicode="&#xe917;" glyph-name="chat" d="M300.657 448c35.347 0 64 28.654 64 64s-28.653 64-64 64c-35.346 0-64-28.654-64-64s28.654-64 64-64zM512 448c35.347 0 64 28.654 64 64s-28.653 64-64 64c-35.346 0-64-28.654-64-64s28.654-64 64-64zM787.341 512c0-35.346-28.653-64-64-64-35.341 0-64 28.654-64 64s28.659 64 64 64c35.347 0 64-28.654 64-64zM959.667 704.127c-5.574 89.228-79.706 159.873-170.336 159.873l-565.458-0.336c-89.228-5.568-159.873-79.699-159.873-170.331v-362.666l0.336-10.795c5.568-89.229 79.699-159.872 170.331-159.872h305.493l122.605-103.354 6.464-4.787c26.675-17.312 62.694-12.448 83.718 12.506l5.299 7.27c6.342 10.131 9.754 21.888 9.754 33.958v54.406h21.331l10.797 0.333c89.229 5.574 159.872 79.706 159.872 170.334v362.666l-0.333 10.794zM704 224v-118.406l-3.117 2.464-137.347 115.942h-328.869l-9.302 0.403c-52.129 4.512-93.857 46.624-97.154 99.457l-0.242 8.797 0.031 360.676 0.401 9.302c4.516 52.129 46.626 93.857 99.459 97.154l8.797 0.242 561.98-0.432c52.128-4.516 93.856-46.626 97.152-99.459l0.243-8.797-0.032-360.676-0.403-9.302c-4.512-52.13-46.624-93.858-99.456-97.154l-8.8-0.243-83.341 0.032z" />
<glyph unicode="&#xe918;" glyph-name="check_button" d="M512 960c-282.624 0-512-229.376-512-512s229.376-512 512-512c282.624 0 512 229.376 512 512s-229.376 512-512 512zM429.137 234.726c-14.7-14.701-38.531-14.701-53.231 0l-152.226 152.223c-14.319 14.319-14.27 37.549 0.109 51.808 14.182 14.063 37.026 14.141 51.303 0.175l127.429-124.648 326.477 328.719c14.31 14.408 37.376 15.155 52.589 1.703 16.55-14.635 17.338-40.196 1.715-55.819l-354.165-354.161z" />
<glyph unicode="&#xe919;" glyph-name="checked" d="M873.222 726.474c12.41 12.581 32.672 12.718 45.254 0.307 11.181-11.033 12.531-28.268 3.974-40.797l-3.674-4.456-505.119-512.003c-11.139-11.29-28.572-12.544-41.11-3.763l-4.45 3.763-262.879 266.461c-12.412 12.58-12.275 32.842 0.307 45.254 11.183 11.033 28.434 12.15 40.847 3.427l4.407-3.733 240.068-243.3 482.374 488.842z" />
<glyph unicode="&#xe91a;" glyph-name="clapperboard_fill" d="M767.917 661.333l98.56 170.667h29.862c23.386 0 42.33-18.987 42.33-42.368v-683.264c-0.083-11.206-4.563-21.933-12.48-29.856-7.923-7.93-18.643-12.422-29.85-12.512h-768.68c-11.229 0.013-21.995 4.48-29.932 12.422-7.936 7.949-12.394 18.714-12.394 29.946v683.264c0.078 11.205 4.561 21.93 12.481 29.857s18.64 12.421 29.845 12.511h128.256l-98.56-170.667h98.56l98.559 170.667h157.441l-98.561-170.667h98.561l98.559 170.667h157.443l-98.56-170.667h98.56z" />
<glyph unicode="&#xe91b;" glyph-name="classcode" d="M938.669 704c47.123 0 85.331-38.205 85.331-85.333v-341.336c0-47.123-38.208-85.331-85.331-85.331h-853.336c-47.128 0-85.333 38.208-85.333 85.331v341.336c0 47.128 38.205 85.333 85.333 85.333h853.336zM938.669 640h-853.336c-10.309 0-18.911-7.313-20.9-17.034l-0.433-4.299v-341.336c0-10.31 7.313-18.906 17.034-20.896l4.299-0.435h853.336c10.31 0 18.906 7.315 20.896 17.037l0.435 4.294v341.336c0 10.309-7.315 18.911-17.037 20.9l-4.294 0.433zM224 512c35.346 0 64-28.654 64-64s-28.654-64-64-64c-35.346 0-64 28.654-64 64s28.654 64 64 64zM416 512c35.346 0 64-28.654 64-64s-28.654-64-64-64c-35.346 0-64 28.654-64 64s28.654 64 64 64zM608 512c35.347 0 64-28.654 64-64s-28.653-64-64-64c-35.347 0-64 28.654-64 64s28.653 64 64 64zM800 512c35.347 0 64-28.654 64-64s-28.653-64-64-64c-35.347 0-64 28.654-64 64s28.653 64 64 64z" />
<glyph unicode="&#xe91c;" glyph-name="classes" d="M775.686 615.416c13.574 11.314 15.411 31.492 4.096 45.069s-31.494 15.411-45.069 4.097l-169.549-141.292-107.336 107.336c-12.497 12.497-32.758 12.497-45.255 0l-160-160c-12.497-12.497-12.497-32.758 0-45.255s32.758-12.497 45.255 0l137.372 137.373 105.373-105.373c11.703-11.702 30.399-12.551 43.114-1.955l192 160zM0 864c0 17.673 14.327 32 32 32h960c17.67 0 32-14.327 32-32s-14.33-32-32-32h-32v-576h32c17.67 0 32-14.33 32-32s-14.33-32-32-32h-448v-38.656c28.255-12.346 48-40.538 48-73.344 0-44.186-35.817-80-80-80s-80 35.814-80 80c0 32.806 19.745 60.998 48 73.344v38.656h-448c-17.673 0-32 14.33-32 32s14.327 32 32 32h32v576h-32c-17.673 0-32 14.327-32 32zM128 256h768v576h-768v-576zM512 96c-8.836 0-16-7.162-16-16s7.164-16 16-16c8.836 0 16 7.162 16 16s-7.164 16-16 16z" />
<glyph unicode="&#xe91d;" glyph-name="close_3px" d="M212.052 747.95c-24.993-24.993-24.994-65.516 0-90.509l209.441-209.441-209.44-209.44c-24.994-24.992-24.994-65.517 0-90.509s65.516-24.992 90.509 0l209.44 209.439 209.438-209.439c24.992-24.992 65.517-24.992 90.509 0s24.992 65.517 0 90.509l-209.437 209.44 209.437 209.439c24.992 24.993 24.992 65.516 0 90.509s-65.517 24.994-90.509 0l-209.438-209.439-209.441 209.441c-24.993 24.994-65.516 24.994-90.509 0z" />
<glyph unicode="&#xe91e;" glyph-name="close" d="M822.803 758.804c12.262-12.261 12.262-32.14 0-44.401l-266.387-266.404 266.387-266.406c12.262-12.256 12.262-32.134 0-44.397s-32.141-12.262-44.397 0l-266.406 266.387-266.404-266.387c-12.26-12.262-32.14-12.262-44.401 0s-12.26 32.141 0 44.397l266.388 266.406-266.388 266.404c-12.26 12.26-12.26 32.14 0 44.401s32.14 12.26 44.401 0l266.404-266.388 266.406 266.388c12.256 12.26 32.134 12.26 44.397 0z" />
<glyph unicode="&#xe91f;" glyph-name="congratulation" d="M873.581 793.070c4.57-17.071-5.562-34.618-22.63-39.192-33.402-8.95-78.118-44.758-113.050-93.555-28.422-39.713-44.992-80.456-46.682-112.442l96.403-55.657c67.034-38.701 71.821-133.672 9.018-178.919l-396.584-285.734c-99.48-71.674-236.971 7.706-224.639 129.696l49.161 486.32c7.785 77.011 92.426 120.35 159.459 81.648l247.549-142.923c8.881 40.57 29.867 81.162 54.276 115.261 38.778 54.18 94.502 103.649 148.525 118.124 17.069 4.574 34.618-5.556 39.194-22.627zM246.167 150.112c-6.166-60.992 62.579-100.685 112.319-64.845l298.851 215.315-374.125 216.001-37.045-366.471zM290.271 586.408l424.008-244.8 40.794 29.393c20.934 15.082 19.341 46.739-3.008 59.64l-403.583 233.011c-22.345 12.9-50.558-1.546-53.153-27.216l-5.057-50.027zM580.662 944c-15.305 8.837-34.876 3.593-43.713-11.713s-3.592-34.876 11.713-43.713c2.217-1.279 5.85-4.845 8.3-12.98 2.416-8.021 2.926-18.398 0.595-29.014-4.581-20.86-18.381-37.58-42.553-40.952-17.504-2.442-29.714-18.611-27.272-36.115s18.611-29.714 36.115-27.272c56.204 7.841 87.192 49.498 96.22 90.611 4.474 20.371 3.994 41.879-1.824 61.197-5.783 19.203-17.628 38.43-37.581 49.951zM406.17 838.86c12.244-7.069 27.901-2.874 34.97 9.37s2.874 27.901-9.37 34.97c-12.244 7.069-27.901 2.874-34.97-9.37s-2.874-27.901 9.37-34.97zM723.93 848.23c-7.066-12.244-22.726-16.44-34.97-9.37s-16.435 22.726-9.37 34.97c7.072 12.244 22.726 16.439 34.97 9.37s16.442-22.726 9.37-34.97zM786.093 558.798c15.309-8.836 34.88-3.593 43.712 11.713 8.838 15.306 3.597 34.876-11.712 43.713-15.302 8.836-34.874 3.593-43.712-11.713s-3.59-34.876 11.712-43.713z" />
<glyph unicode="&#xe920;" glyph-name="copy" d="M618.667 896c47.125 0 85.333-38.205 85.333-85.333v-106.667h170.669c47.123 0 85.331-38.205 85.331-85.333v-533.336c0-47.123-38.208-85.331-85.331-85.331h-469.336c-47.128 0-85.333 38.208-85.333 85.331v42.669h-170.667c-47.128 0-85.333 38.208-85.333 85.331v597.336c0 47.128 38.205 85.333 85.333 85.333h469.334zM704 213.331c0-47.123-38.208-85.331-85.333-85.331h-234.667v-42.669c0-10.31 7.313-18.906 17.034-20.896l4.299-0.435h469.336c10.31 0 18.906 7.315 20.896 17.037l0.435 4.294v533.336c0 10.309-7.315 18.911-17.037 20.9l-4.294 0.433h-170.669v-426.669zM618.667 832h-469.334c-10.309 0-18.911-7.313-20.9-17.034l-0.433-4.299v-597.336c0-10.31 7.313-18.906 17.034-20.896l4.299-0.435h469.334c10.309 0 18.911 7.315 20.9 17.037l0.433 4.294v597.336c0 10.309-7.313 18.911-17.034 20.9l-4.299 0.433z" />
<glyph unicode="&#xe921;" glyph-name="delete" d="M618.667 896c47.125 0 85.333-38.205 85.333-85.333v-42.667h160c17.67 0 32-14.327 32-32s-14.33-32-32-32h-35.2l-28.774-579.181c-1.696-34.067-29.811-60.819-63.923-60.819h-448.205c-34.111 0-62.227 26.752-63.921 60.819l-28.776 579.181h-35.2c-17.673 0-32 14.327-32 32s14.327 32 32 32h160v42.667c0 47.128 38.205 85.333 85.333 85.333h213.334zM764.736 704h-505.536l28.697-576h448.205l28.634 576zM618.667 832h-213.334c-10.309 0-18.911-7.313-20.9-17.034l-0.433-4.299v-42.667h256v42.667c0 10.309-7.313 18.911-17.034 20.9l-4.299 0.433z" />
<glyph unicode="&#xe922;" glyph-name="deleteUser" d="M709.491 327.764l90.458-90.465 90.56 90.465c11.11 11.108 28.352 12.342 40.826 3.703l4.429-3.703c11.11-11.105 12.346-28.353 3.706-40.82l-3.706-4.435-90.502-90.458 90.502-90.56c12.499-12.499 12.499-32.762 0-45.254-12.493-12.499-32.755-12.499-45.254 0l-90.56 90.502-90.458-90.502c-11.11-11.11-28.352-12.346-40.826-3.706l-4.429 3.706c-11.11 11.104-12.346 28.352-3.706 40.819l3.706 4.435 90.464 90.56-90.464 90.458c-12.499 12.499-12.499 32.762 0 45.256 12.493 12.497 32.755 12.497 45.254 0zM514.783 896c119.869 0 217.044-93.124 217.044-208 0-64.596-30.726-122.315-78.938-160.465 51.725-13.184 100.358-34.334 143.891-62.495l18.342-12.496 6.074-4.492c10.675-8.070 13.734-22.141 7.853-33.77l-3.072-4.81-2.266-2.463-2.24-1.953c-10.554-8.28-24.538-10.617-37.414-6.447l-6.323 2.63-4.448 2.732c-65.088 46.412-145.494 73.703-230.974 77.365l-2.728 0.073-12.256-1.066c-4.152-0.227-8.335-0.342-12.545-0.342-6.505 0-12.943 0.274-19.302 0.812-204.884-13.101-364.59-160.952-364.59-339.276 0-5.709 5.229-11.392 12.959-13.894l4.917-1.094 4.582-0.307h387.466c18.409 0 33.445-13.869 33.445-31.117 0-13.274-8.968-24.749-22.26-29.235l-5.948-1.485-5.237-0.403h-387.466c-49.016 0-89.35 34.285-89.35 77.536 0 178.144 132.752 329.764 317.309 382.537-50.875 37.978-83.57 97.293-83.57 163.927 0 114.876 97.174 208 217.044 208zM514.783 833.6c-83.909 0-151.93-65.187-151.93-145.6 0-75.082 59.3-136.89 135.466-144.755l3.443 0.247c6.457 0.353 13.174 0.508 20.648 0.508 4.387 0 8.764-0.054 13.131-0.161 74.083 9.602 131.174 70.492 131.174 144.161 0 80.413-68.022 145.6-151.931 145.6z" />
<glyph unicode="&#xe923;" glyph-name="desktop" d="M826.554 832c73.702 0 133.446-59.746 133.446-133.447v-373.106c0-73.703-59.744-133.447-133.446-133.447h-186.554v-63.936l96-0.064c17.67 0 32-14.33 32-32s-14.33-32-32-32h-448c-17.673 0-32 14.33-32 32s14.327 32 32 32l96 0.064v63.936h-186.553c-73.701 0-133.447 59.744-133.447 133.447v373.106c0 73.701 59.746 133.447 133.447 133.447h629.107zM575.936 192h-128v-63.936h128v63.936zM895.68 320h-767.424l0.152-2.118c3.501-32.314 29.163-57.971 61.472-61.472l7.567-0.41h629.107c35.795 0 65.267 27.085 69.037 61.882l0.090 2.118zM826.554 768h-629.107c-35.798 0-65.269-27.085-69.039-61.88l-0.408-7.567v-314.553h768v314.553c0 35.798-27.085 65.269-61.882 69.039l-7.565 0.408z" />
<glyph unicode="&#xe924;" glyph-name="drag" d="M864 320c17.67 0 32-14.33 32-32s-14.33-32-32-32h-704c-17.673 0-32 14.33-32 32s14.327 32 32 32h704zM864 512c17.67 0 32-14.327 32-32s-14.33-32-32-32h-704c-17.673 0-32 14.327-32 32s14.327 32 32 32h704zM864 704c17.67 0 32-14.327 32-32s-14.33-32-32-32h-704c-17.673 0-32 14.327-32 32s14.327 32 32 32h704z" />
<glyph unicode="&#xe925;" glyph-name="drive" d="M368.892 832c48.483 0 92.804-27.392 114.487-70.756l28.621-57.244h320c70.694 0 128-57.308 128-128v-384c0-70.694-57.306-128-128-128h-640c-70.692 0-128 57.306-128 128v512c0 70.692 57.308 128 128 128h176.892zM368.892 768h-176.892c-32.822 0-59.873-24.707-63.569-56.536l-0.431-7.464v-512c0-32.819 24.707-59.872 56.536-63.571l7.464-0.429h640c32.819 0 59.872 24.704 63.571 56.538l0.429 7.462v384c0 32.822-24.704 59.873-56.538 63.569l-7.462 0.431h-359.554l-46.311 92.621c-9.636 19.274-28.217 32.236-49.252 34.879l-7.991 0.499z" />
<glyph unicode="&#xe926;" glyph-name="dubbing_face" d="M832 480c17.67 0 32-14.327 32-32 0-20.529-1.76-40.85-5.235-60.802-27.341-156.9-157.229-275.544-314.872-289.764 0.095-0.435 0.107-0.934 0.107-1.434v-128c0-17.67-14.327-32-32-32s-32 14.33-32 32v128l0.149 1.427c-155.341 14.003-283.955 129.434-313.733 283.36-4.256 22-6.416 44.477-6.416 67.213 0 17.673 14.327 32 32 32s32-14.327 32-32c0-18.651 1.769-37.057 5.251-55.057 25.995-134.37 144.2-232.943 282.749-232.943 140.512 0 259.872 101.338 283.712 238.184 2.848 16.328 4.288 32.973 4.288 49.816 0 17.673 14.33 32 32 32zM512 960c106.038 0 192-85.962 192-192v-320c0-106.038-85.962-192-192-192s-192 85.962-192 192v320c0 106.038 85.962 192 192 192z" />
<glyph unicode="&#xe927;" glyph-name="dubbing" d="M832 480c17.67 0 32-14.327 32-32 0-20.529-1.76-40.85-5.235-60.802-27.341-156.9-157.229-275.544-314.872-289.764 0.095-0.435 0.107-0.934 0.107-1.434v-128c0-17.67-14.327-32-32-32s-32 14.33-32 32v128l0.149 1.427c-155.341 14.003-283.955 129.434-313.733 283.36-4.256 22-6.416 44.477-6.416 67.213 0 17.673 14.327 32 32 32s32-14.327 32-32c0-18.651 1.769-37.057 5.251-55.057 25.995-134.37 144.2-232.943 282.749-232.943 140.512 0 259.872 101.338 283.712 238.184 2.848 16.328 4.288 32.973 4.288 49.816 0 17.673 14.33 32 32 32zM512 960c106.038 0 192-85.962 192-192v-320c0-106.038-85.962-192-192-192s-192 85.962-192 192v320c0 106.038 85.962 192 192 192zM512 896c-67.479 0-122.763-52.216-127.649-118.447l-0.351-9.553v-320c0-70.692 57.308-128 128-128 67.479 0 122.763 52.216 127.649 118.447l0.351 9.553v320c0 70.692-57.308 128-128 128z" />
<glyph unicode="&#xe928;" glyph-name="edit" d="M928 64c17.67 0 32-14.33 32-32s-14.33-32-32-32h-832c-17.673 0-32 14.33-32 32s14.327 32 32 32h832zM797.28 876.658l45.254-45.255c49.99-49.987 49.99-131.032 0-181.019l-454.984-454.986c-9.156-9.158-20.875-15.322-33.608-17.677l-166.596-30.835c-34.756-6.432-68.145 16.531-74.577 51.29-1.425 7.699-1.425 15.59 0 23.29l30.831 166.597c2.356 12.733 8.52 24.452 17.677 33.608l454.987 454.987c49.989 49.987 131.032 49.987 181.016 0zM212.416 382.308l-5.884-5.892-30.831-166.599 166.596 30.835 5.864 5.914-135.744 135.742zM596.416 766.308l-338.688-338.752 135.744-135.742 338.688 338.75-135.744 135.744zM667.098 836.376l-5.581-4.973-19.853-19.782 135.808-135.808 19.808 19.826c23.213 23.208 24.87 59.807 4.973 84.928l-4.973 5.582-45.254 45.254c-23.206 23.208-59.802 24.867-84.928 4.973z" />
<glyph unicode="&#xe929;" glyph-name="email" d="M832 832c60.243 0 110.765-41.619 124.384-97.672v0.017l0.326-1.374c0.416-1.814 0.8-3.643 1.139-5.485l-1.466 6.86c0.8-3.304 1.478-6.659 2.016-10.057 1.056-6.618 1.6-13.389 1.6-20.287v-512c0-70.694-57.306-128-128-128h-640c-70.692 0-128 57.306-128 128v512c0 6.606 0.5 13.096 1.466 19.432 0.272 1.788 0.581 3.562 0.926 5.323 0.274 1.396 0.569 2.777 0.886 4.15 0.083 0.358 0.172 0.737 0.262 1.114 13.5 56.202 64.101 97.981 124.46 97.981h640zM128 608.512v-416.512c0-32.819 24.707-59.872 56.536-63.571l7.464-0.429h640c32.819 0 59.872 24.704 63.571 56.538l0.429 7.462v414.592l-262.983-204.052-10.966-7.731c-63.725-41.424-145.716-41.175-209.030-0.102l-10.972 7.672-274.049 206.134zM832 768h-640c-32.822 0-59.873-24.707-63.569-56.536l-0.431-7.464v-15.424l312.516-235.048c43.254-32.534 101.907-34.147 146.653-5.060l8.755 6.227 300.076 232.858v16.448c0 32.822-24.704 59.873-56.538 63.569l-7.462 0.431z" />
<glyph unicode="&#xe92a;" glyph-name="evaluate" d="M352 512c-17.673 0-32-14.327-32-32s14.327-32 32-32h320c17.67 0 32 14.327 32 32s-14.33 32-32 32h-320zM352 320c-17.673 0-32-14.33-32-32s14.327-32 32-32h192c17.673 0 32 14.33 32 32s-14.327 32-32 32h-192zM312.888 832h-88.888c-53.020 0-96-42.98-96-96v-640c0-53.018 42.98-96 96-96h576c53.018 0 96 42.982 96 96v640c0 53.020-42.982 96-96 96h-88.89l-11.552 25.993c-10.272 23.112-33.19 38.007-58.483 38.007h-258.15c-25.292 0-48.212-14.895-58.484-38.007l-11.553-25.993zM733.594 768h66.406c17.67 0 32-14.327 32-32v-640c0-17.67-14.33-32-32-32h-576c-17.673 0-32 14.33-32 32v640c0 17.673 14.327 32 32 32h66.408c-0.012-33.72 27.16-64 64.072-64h315.037c36.915 0 64.083 30.28 64.077 64zM380.5 832h257.5l29.251-64h-315.251l28.5 64z" />
<glyph unicode="&#xe92b;" glyph-name="exit_fuil_screen" d="M704 512c-70.692 0-128 57.308-128 128v160c0 17.673 14.327 32 32 32s32-14.327 32-32v-160c0-32.822 24.704-59.873 56.538-63.569l7.462-0.431h160c17.67 0 32-14.327 32-32s-14.33-32-32-32h-160zM384 96c0-17.67 14.327-32 32-32s32 14.33 32 32v160c0 70.692-57.308 128-128 128h-160c-17.673 0-32-14.327-32-32s14.327-32 32-32l32 0.064v-0.064h128l7.464-0.429c31.83-3.699 56.536-30.752 56.536-63.571v-160zM576 96c0-17.67 14.327-32 32-32s32 14.33 32 32l-0.064 32h0.064v128l0.429 7.462c3.699 31.834 30.752 56.538 63.571 56.538h160c17.67 0 32 14.327 32 32s-14.33 32-32 32h-160c-70.692 0-128-57.308-128-128v-160zM128 544c0-17.673 14.327-32 32-32h160c70.692 0 128 57.308 128 128v160c0 17.673-14.327 32-32 32s-32-14.327-32-32v-160l-0.431-7.464c-3.697-31.83-30.748-56.536-63.569-56.536h-160c-17.673 0-32-14.327-32-32z" />
<glyph unicode="&#xe92c;" glyph-name="faq" d="M832 832c70.694 0 128-57.308 128-128v-448c0-70.694-57.306-128-128-128h-374.144l-164.39-118.733c-28.657-20.698-68.661-14.24-89.353 14.419-7.875 10.906-12.113 24.013-12.113 37.466v66.848c-70.692 0-128 57.306-128 128v448c0 70.692 57.308 128 128 128h640zM832 768h-640c-32.822 0-59.873-24.707-63.569-56.536l-0.431-7.464v-448c0-32.819 24.707-59.872 56.536-63.571l7.464-0.429h64v-130.752l181.16 130.752h394.84c32.819 0 59.872 24.704 63.571 56.538l0.429 7.462v448c0 32.822-24.704 59.873-56.538 63.569l-7.462 0.431zM493.227 672c20.764 0 39.822-3.698 57.173-11.093s32.284-17.991 44.8-31.787c12.516-13.796 22.187-30.791 29.013-50.987s10.24-43.093 10.24-68.693c0-31.573-5.049-59.022-15.146-82.347s-24.107-41.955-42.027-55.893l63.149-75.091h-78.082l-40.107 51.198-7.253-1.174-7.254-0.96c-4.835-0.569-9.671-0.853-14.506-0.853-21.049 0-40.178 3.769-57.387 11.307s-32.071 18.489-44.587 32.853c-12.515 14.364-22.186 31.716-29.013 52.053s-10.24 43.307-10.24 68.907c0 25.6 3.413 48.498 10.24 68.693s16.498 37.263 29.013 51.2c12.516 13.938 27.378 24.534 44.587 31.787s36.338 10.88 57.387 10.88zM493.227 617.813c-23.609 0-42.311-9.529-56.107-28.586s-20.693-45.654-20.693-79.787c0-16.782 1.777-32 5.333-45.653s8.676-25.316 15.36-34.987c6.684-9.671 14.791-17.067 24.32-22.187s20.124-7.68 31.787-7.68c11.662 0 22.257 2.56 31.786 7.68s17.636 12.516 24.32 22.187c6.685 9.671 11.805 21.333 15.36 34.987s5.334 28.871 5.334 45.653c0 34.133-6.898 60.729-20.694 79.787s-32.497 28.586-56.106 28.586z" />
<glyph unicode="&#xe92d;" glyph-name="feed" d="M736 64c17.67 0 32-14.33 32-32s-14.33-32-32-32h-448c-17.673 0-32 14.33-32 32s14.327 32 32 32h448zM864 192c17.67 0 32-14.33 32-32s-14.33-32-32-32h-704c-17.673 0-32 14.33-32 32s14.327 32 32 32h704zM874.669 896c47.123 0 85.331-38.205 85.331-85.333v-469.334c0-47.125-38.208-85.333-85.331-85.333h-725.336c-47.128 0-85.333 38.208-85.333 85.333v469.334c0 47.128 38.205 85.333 85.333 85.333h725.336zM874.669 832h-725.336c-10.309 0-18.911-7.313-20.9-17.034l-0.433-4.299v-469.334c0-10.309 7.313-18.911 17.034-20.9l4.299-0.433h725.336c10.31 0 18.906 7.313 20.896 17.034l0.435 4.299v469.334c0 10.309-7.315 18.911-17.037 20.9l-4.294 0.433zM439.901 739.532l5.846-2.406 245.926-122.964c8.256-4.128 14.957-10.824 19.085-19.081 9.581-19.16 3.392-42.083-13.651-54.010l-5.434-3.233-245.926-122.964c-5.924-2.962-12.458-4.504-19.081-4.504-21.422 0-39.157 15.788-42.204 36.362l-0.463 6.305v245.928c0 6.624 1.542 13.156 4.504 19.081 9.58 19.16 31.632 27.963 51.397 21.487zM448 664.448v-176.832l176.832 88.384-176.832 88.448z" />
<glyph unicode="&#xe92e;" glyph-name="filter" d="M288 192c41.806 0 77.37-26.72 90.544-64.019l485.456 0.019c17.67 0 32-14.33 32-32s-14.33-32-32-32l-485.478-0.045c-13.192-37.261-48.739-63.955-90.522-63.955s-77.33 26.694-90.522 63.955l-101.478 0.045c-17.673 0-32 14.33-32 32s14.327 32 32 32l101.456-0.019c13.174 37.299 48.738 64.019 90.544 64.019zM288 144c-26.509 0-48-21.491-48-48s21.491-48 48-48c26.509 0 48 21.491 48 48s-21.491 48-48 48zM672 512c41.805 0 77.37-26.723 90.547-64.019l101.453 0.019c17.67 0 32-14.327 32-32s-14.33-32-32-32l-101.478-0.045c-13.19-37.263-48.742-63.955-90.522-63.955-41.782 0-77.33 26.692-90.522 63.955l-485.478 0.045c-17.673 0-32 14.327-32 32s14.327 32 32 32l485.456-0.019c13.174 37.296 48.738 64.019 90.544 64.019zM672 464c-26.509 0-48-21.491-48-48s21.491-48 48-48c26.509 0 48 21.491 48 48s-21.491 48-48 48zM288 832c41.806 0 77.37-26.723 90.544-64.019l485.456 0.019c17.67 0 32-14.327 32-32s-14.33-32-32-32l-485.478-0.045c-13.192-37.263-48.739-63.955-90.522-63.955s-77.33 26.692-90.522 63.955l-101.478 0.045c-17.673 0-32 14.327-32 32s14.327 32 32 32l101.456-0.019c13.174 37.296 48.738 64.019 90.544 64.019zM288 784c-26.509 0-48-21.491-48-48s21.491-48 48-48c26.509 0 48 21.491 48 48s-21.491 48-48 48z" />
<glyph unicode="&#xe92f;" glyph-name="following" d="M514.783 896c119.869 0 217.044-93.124 217.044-208 0-64.596-30.726-122.315-78.938-160.465 51.725-13.184 100.358-34.334 143.891-62.495l18.342-12.496 6.074-4.492c10.675-8.070 13.734-22.141 7.853-33.77l-3.072-4.81-2.266-2.463-2.24-1.953c-10.554-8.28-24.538-10.617-37.414-6.447l-6.323 2.63-4.448 2.732c-65.088 46.412-145.494 73.703-230.974 77.365l-2.728 0.073-12.256-1.066c-4.152-0.227-8.335-0.342-12.545-0.342-6.505 0-12.943 0.274-19.302 0.812-204.884-13.101-364.59-160.952-364.59-339.276 0-5.709 5.229-11.392 12.959-13.894l4.917-1.094 4.582-0.307h387.466c18.409 0 33.445-13.869 33.445-31.117 0-13.274-8.968-24.749-22.26-29.235l-5.948-1.485-5.237-0.403h-387.466c-49.016 0-89.35 34.285-89.35 77.536 0 178.144 132.752 329.764 317.309 382.537-50.875 37.978-83.57 97.293-83.57 163.927 0 114.876 97.174 208 217.044 208zM946.739 377.386c13.197-9.564 16.877-26.498 9.53-39.99l-3.27-4.877-207.994-255.999c-12.205-15.021-35.002-16.525-49.325-4.506l-4.435 4.506-108.241 133.229c-11.391 14.022-8.591 34.112 6.254 44.87 13.196 9.562 31.468 8.531 43.366-1.658l4.141-4.25 81.341-100.102 181.133 222.871c11.392 14.020 32.659 16.666 47.501 5.907zM514.783 833.6c-83.909 0-151.93-65.187-151.93-145.6 0-75.082 59.3-136.89 135.466-144.755l3.443 0.247c6.457 0.353 13.174 0.508 20.648 0.508 4.387 0 8.764-0.054 13.131-0.161 74.083 9.602 131.174 70.492 131.174 144.161 0 80.413-68.022 145.6-151.931 145.6z" />
<glyph unicode="&#xe930;" glyph-name="full_screen" d="M160 384c17.673 0 32-14.327 32-32v-160c0-32.819 24.707-59.872 56.536-63.571l7.464-0.429h160c17.673 0 32-14.33 32-32s-14.327-32-32-32h-160c-70.692 0-128 57.306-128 128v160c0 17.673 14.327 32 32 32zM864 384c17.67 0 32-14.327 32-32v-160c0-70.694-57.306-128-128-128h-160c-17.673 0-32 14.33-32 32s14.327 32 32 32h160c32.819 0 59.872 24.704 63.571 56.538l0.429 7.462v128h0.064l-0.064 32c0 17.673 14.33 32 32 32zM416 832c17.673 0 32-14.327 32-32s-14.327-32-32-32h-160c-32.822 0-59.873-24.707-63.569-56.536l-0.431-7.464v-128h-0.064l0.064-32c0-17.673-14.327-32-32-32s-32 14.327-32 32v160c0 70.692 57.308 128 128 128h160zM768 832c70.694 0 128-57.308 128-128v-160c0-17.673-14.33-32-32-32s-32 14.327-32 32v160c0 32.822-24.704 59.873-56.538 63.569l-7.462 0.431h-160c-17.673 0-32 14.327-32 32s14.327 32 32 32h160z" />
<glyph unicode="&#xe931;" glyph-name="fullView" d="M640 328.591c42.669 24.634 42.669 86.218 0 110.851l-144 83.138c-42.667 24.634-96-6.158-96-55.425v-166.278c0-49.267 53.333-80.058 96-55.424l144 83.138zM608 384.016l-144-83.139v166.278l144-83.139zM344.989 851.989l118.392-147.989h97.239l118.388 147.989c11.046 13.8 31.181 16.038 44.979 4.998 13.805-11.041 16.038-31.178 4.998-44.979l-86.406-108.008h189.421c70.694 0 128-57.308 128-128v-384c0-70.694-57.306-128-128-128h-640c-70.692 0-128 57.306-128 128v384c0 70.692 57.308 128 128 128h189.42l-86.407 108.008c-11.040 13.8-8.803 33.938 4.998 44.979s33.938 8.803 44.978-4.998zM192 640c-35.346 0-64-28.654-64-64v-384c0-35.347 28.654-64 64-64h640c35.347 0 64 28.653 64 64v384c0 35.346-28.653 64-64 64h-640z" />
<glyph unicode="&#xe932;" glyph-name="game" d="M702.72 533.332c23.565 0 42.669-19.102 42.669-42.666v-0.854c0-23.564-19.104-42.666-42.669-42.666s-42.669 19.102-42.669 42.666v0.854c0 23.564 19.104 42.666 42.669 42.666zM575.999 406.185c0 23.564 19.103 42.667 42.667 42.667h0.48c23.562 0 42.666-19.103 42.666-42.667s-19.104-42.667-42.666-42.667h-0.48c-23.564 0-42.667 19.103-42.667 42.667zM744.109 406.185c0 23.564 19.098 42.667 42.662 42.667h0.48c23.565 0 42.669-19.103 42.669-42.667s-19.104-42.667-42.669-42.667h-0.48c-23.565 0-42.662 19.103-42.662 42.667zM745.389 322.56c0 23.564-19.104 42.667-42.669 42.667s-42.669-19.103-42.669-42.667v-0.854c0-23.562 19.104-42.666 42.669-42.666s42.669 19.104 42.669 42.666v0.854zM417.294 449.271c12.497 12.497 12.497 32.758 0 45.255s-32.758 12.497-45.255 0l-42.44-42.44-41.158 41.158c-12.497 12.497-32.758 12.497-45.255 0s-12.497-32.758 0-45.255l41.158-41.158-42.438-42.439c-12.497-12.497-12.497-32.758 0-45.256 12.497-12.493 32.758-12.493 45.254 0l42.439 42.44 43.72-43.72c12.497-12.499 32.758-12.499 45.254 0 12.497 12.497 12.497 32.758 0 45.255l-43.72 43.72 42.44 42.44zM566.93 902.399c-17.672 0.175-32.14-14.010-32.315-31.681l-0.425-42.921c-0.161-6.31-5.011-10.73-10.67-10.73h-1.28c-41.557 0-74.24-33.947-74.24-74.666 0-2.156 0.092-4.291 0.273-6.401h-288.273c-70.692 0-128-57.308-128-128v-416c0-70.694 57.308-128 128-128h704c70.694 0 128 57.306 128 128v416c0 70.692-57.306 128-128 128h-349.807c-1.371 1.795-2.193 4.020-2.193 6.401 0 6.214 4.864 10.666 10.24 10.666h1.28c41.247 0 73.925 33.084 74.662 73.658l0.429 43.359c0.175 17.672-14.010 32.14-31.682 32.315zM96 608c0 35.346 28.654 64 64 64h704c35.347 0 64-28.654 64-64v-416c0-35.347-28.653-64-64-64h-704c-35.346 0-64 28.653-64 64v416z" />
<glyph unicode="&#xe933;" glyph-name="graph" d="M937.459 726.712c12.544 12.45 32.8 12.374 45.254-0.169 11.066-11.149 12.237-28.397 3.546-40.836l-3.718-4.418-400.387-397.41c-11.091-11.008-28.23-12.237-40.664-3.674l-4.422 3.674-167.596 166.298-282.929-280.89c-11.149-11.066-28.397-12.237-40.836-3.546l-4.418 3.718c-11.067 11.149-12.237 28.397-3.55 40.832l3.719 4.422 305.528 303.255c11.091 11.009 28.23 12.232 40.664 3.67l4.422-3.67 167.544-166.225 377.843 374.968z" />
<glyph unicode="&#xe934;" glyph-name="hambergerMenu" d="M864 256c17.67 0 32-14.33 32-32s-14.33-32-32-32h-704c-17.673 0-32 14.33-32 32s14.327 32 32 32h704zM864 512c17.67 0 32-14.327 32-32s-14.33-32-32-32h-704c-17.673 0-32 14.327-32 32s14.327 32 32 32h704zM864 768c17.67 0 32-14.327 32-32s-14.33-32-32-32h-704c-17.673 0-32 14.327-32 32s14.327 32 32 32h704z" />
<glyph unicode="&#xe935;" glyph-name="help" d="M512 896c247.424 0 448-200.577 448-448s-200.576-448-448-448c-247.423 0-448 200.576-448 448s200.577 448 448 448zM512 834.207c-213.296 0-386.207-172.911-386.207-386.207 0-213.299 172.911-386.208 386.207-386.208 213.299 0 386.208 172.909 386.208 386.208 0 213.296-172.909 386.207-386.208 386.207zM496.929 325.319c14.072 0 25.682-4.837 34.829-14.509 9.147-9.677 13.72-21.728 13.72-36.147 0-14.426-4.573-26.477-13.72-36.154-9.147-9.67-20.756-14.509-34.829-14.509-13.72 0-25.154 4.838-34.301 14.509-9.147 9.677-13.72 21.728-13.72 36.154 0 14.419 4.573 26.47 13.72 36.147 9.147 9.672 20.58 14.509 34.301 14.509zM495.016 639.947l9.828-0.116c15.48-0.703 29.992-3.43 43.536-8.179s25.242-11.434 35.092-20.053c9.851-8.619 17.59-19.085 23.219-31.398s8.444-26.385 8.444-42.216c0-18.294-2.287-33.069-6.86-44.327s-10.291-20.668-17.151-28.232c-6.86-7.564-14.16-14.16-21.9-19.789s-14.864-11.873-21.372-18.733c-6.508-6.86-11.873-15.215-16.095-25.066s-5.981-22.691-5.277-38.522h-59.63l-0.549 11.219c-0.338 14.438 0.9 26.793 3.715 37.066 3.518 12.841 8.179 23.659 13.984 32.454s12.225 16.359 19.261 22.692c7.036 6.332 13.632 12.489 19.789 18.469s11.345 12.665 15.567 20.053c4.221 7.388 6.332 16.534 6.332 27.441 0 13.72-3.342 25.242-10.026 34.564s-17.414 13.984-32.19 13.984c-14.776 0-26.913-5.101-36.412-15.303s-14.952-25.858-16.359-46.966h-65.963l1.235 13.488c2.168 17.393 6.417 32.422 12.749 45.087 7.916 15.831 17.59 28.496 29.024 37.994s24.010 16.095 37.731 19.789c13.72 3.693 27.089 5.189 40.106 4.485l-9.828 0.116z" />
<glyph unicode="&#xe936;" glyph-name="hide_line" d="M650.835 359.055l99.757-99.727 99.802 99.727c12.243 12.246 31.251 13.606 44.998 4.082l4.89-4.082c12.243-12.246 13.606-31.255 4.083-45.001l-4.083-4.89-99.834-99.757 99.834-99.802c13.773-13.773 13.773-36.109 0-49.888-13.779-13.773-36.115-13.773-49.888 0l-99.802 99.834-99.757-99.834c-12.247-12.243-31.256-13.606-45.005-4.083l-4.886 4.083c-12.246 12.25-13.606 31.258-4.082 45.005l4.082 4.883 99.727 99.802-99.727 99.757c-13.777 13.778-13.777 36.114 0 49.891s36.113 13.777 49.891 0zM480 256c17.673 0 32-14.33 32-32s-14.327-32-32-32h-320c-17.673 0-32 14.33-32 32s14.327 32 32 32h320zM864 512c17.67 0 32-14.327 32-32s-14.33-32-32-32h-704c-17.673 0-32 14.327-32 32s14.327 32 32 32h704zM864 768c17.67 0 32-14.327 32-32s-14.33-32-32-32h-704c-17.673 0-32 14.327-32 32s14.327 32 32 32h704z" />
<glyph unicode="&#xe937;" glyph-name="hidepw" d="M981.197 599.971c13.242-11.708 14.483-31.931 2.771-45.17-56.48-63.871-121.626-112.692-195.174-146.411l73.6-73.527c12.493-12.497 12.493-32.757 0-45.256-12.499-12.493-32.762-12.493-45.254 0l-90.509 90.511c-1.011 1.007-1.933 2.063-2.778 3.162-55.68-17.901-115.696-28.123-179.849-30.654-0.006-0.146-0.004-0.385-0.004-0.625v-127.999c0-17.67-14.327-32-32-32s-32 14.33-32 32v127.999l0.060 0.623c-67.629 2.663-130.661 13.872-188.988 33.604-1.199-2.169-2.797-4.227-4.68-6.109l-90.509-90.511c-12.497-12.493-32.758-12.493-45.255 0-12.497 12.499-12.497 32.76 0 45.256l77.053 77.043c-70.474 33.564-133.1 81.21-187.651 142.895-11.708 13.239-10.467 33.462 2.772 45.17s33.462 10.467 45.17-2.772c106.975-120.964 247.523-181.199 424.029-181.199s317.050 60.234 424.033 181.199c11.706 13.238 31.93 14.479 45.165 2.772z" />
<glyph unicode="&#xe938;" glyph-name="home_active" d="M586.399 840.158l320.001-228.572c33.638-24.027 53.6-62.82 53.6-104.158v-382.129c0-70.694-57.306-128-128-128h-640c-70.692 0-128 57.306-128 128v382.129c0 41.338 19.964 80.131 53.601 104.158l320 228.572c44.506 31.789 104.292 31.789 148.797 0zM481.69 792.371l-6.89-4.292-320-228.572c-14.716-10.511-24.198-26.676-26.339-44.399l-0.462-7.679v-382.129c0-32.819 24.707-59.872 56.536-63.571l7.464-0.429h640c32.819 0 59.872 24.704 63.571 56.538l0.429 7.462v382.129c0 18.085-7.642 35.197-20.819 47.24l-5.984 4.839-319.997 228.572c-20.028 14.305-46.244 15.736-67.509 4.292zM658.643 311.309c14.362-10.298 17.664-30.291 7.366-44.653-36.675-51.155-89.073-77.357-154.010-77.357s-117.334 26.202-154.008 77.357c-10.297 14.362-7 34.355 7.363 44.653 14.364 10.295 34.355 7.002 44.652-7.366 24.5-34.176 57.436-50.643 101.992-50.643s77.492 16.467 101.992 50.643c10.297 14.368 30.289 17.661 44.651 7.366zM384 509.3c35.346 0 64-28.654 64-64s-28.654-64-64-64c-35.346 0-64 28.653-64 64s28.654 64 64 64zM640 509.3c35.347 0 64-28.654 64-64s-28.653-64-64-64c-35.347 0-64 28.653-64 64s28.653 64 64 64z" />
<glyph unicode="&#xe939;" glyph-name="home_inactive" d="M586.399 840.158l320.001-228.572c33.638-24.027 53.6-62.82 53.6-104.158v-382.129c0-70.694-57.306-128-128-128h-640c-70.692 0-128 57.306-128 128v382.129c0 41.338 19.964 80.131 53.601 104.158l320 228.572c44.506 31.789 104.292 31.789 148.797 0zM481.69 792.371l-6.89-4.292-320-228.572c-14.716-10.511-24.198-26.676-26.339-44.399l-0.462-7.679v-382.129c0-32.819 24.707-59.872 56.536-63.571l7.464-0.429h640c32.819 0 59.872 24.704 63.571 56.538l0.429 7.462v382.129c0 18.085-7.642 35.197-20.819 47.24l-5.984 4.839-319.997 228.572c-20.028 14.305-46.244 15.736-67.509 4.292zM608 288c17.673 0 32-14.33 32-32s-14.327-32-32-32h-192c-17.673 0-32 14.33-32 32s14.327 32 32 32h192zM448 480c17.673 0 32-14.327 32-32 0-53.020-42.98-96-96-96s-96 42.98-96 96c0 17.673 14.327 32 32 32 15.709 0 28.775-11.32 31.484-26.248l0.516-5.752c0-17.673 14.327-32 32-32 15.709 0 28.775 11.32 31.484 26.248l0.516 5.752c0 17.673 14.327 32 32 32zM704 480c17.67 0 32-14.327 32-32 0-53.020-42.982-96-96-96-53.020 0-96 42.98-96 96 0 17.673 14.327 32 32 32 15.709 0 28.775-11.32 31.484-26.248l0.516-5.752c0-17.673 14.327-32 32-32 15.712 0 28.774 11.32 31.482 26.248l0.518 5.752c0 17.673 14.33 32 32 32z" />
<glyph unicode="&#xe93a;" glyph-name="incompletion" d="M277.631 772.307v-41.665h-128.179c-47.194 0-85.453-37.308-85.453-83.33v-499.983c0-46.022 38.259-83.328 85.453-83.328h128.179c23.597 0 42.726 18.656 42.726 41.664v41.664c0 160.134 213.631 160.134 213.631 0v-41.664c0-23.008 19.129-41.664 42.726-41.664h128.181c47.194 0 85.453 37.306 85.453 83.328v124.998h42.726c169.235 20.832 169.235 245.726 0 249.99h-42.726v124.995c0 46.022-38.259 83.33-85.453 83.33h-170.907v41.665c4.707 164.925-243.599 164.925-256.358 0zM412.36 833.502c33.468 0 55.375-17.635 57.423-52.776l0.116-8.42v-104.163h234.996c10.323 0 18.938-7.14 20.928-16.634l0.435-4.198v-187.493l105.158 0.021c84.051-2.118 86.95-106.427 2.963-123.969l-6.317-1.026-101.805-0.021v-187.495c0-10.067-7.328-18.464-17.062-20.41l-4.301-0.422-106.787 0.045-0.031 20.787c0 103.59-69.61 176.997-160.344 182.292l-10.561 0.307c-92.287 0-165.316-69.569-170.599-170.778l-0.306-11.821 0.052-20.787-106.867-0.045c-10.324 0-18.938 7.142-20.929 16.634l-0.434 4.198v499.983c0 10.067 7.323 18.467 17.057 20.409l4.306 0.423h192.268l0.030 101.059 0.872 7.092c5.878 33.651 29.943 53.923 61.655 56.842l8.081 0.366z" />
<glyph unicode="&#xe93b;" glyph-name="info" d="M512 896c247.424 0 448-200.577 448-448s-200.576-448-448-448c-247.423 0-448 200.576-448 448s200.577 448 448 448zM512 840c-216.495 0-392-175.505-392-392 0-216.493 175.505-392 392-392 216.493 0 392 175.507 392 392 0 216.495-175.507 392-392 392zM511.651 319.008c36.371 0 64.349-27.782 64.349-63.507 0-35.718-27.978-63.501-64.349-63.501s-63.651 27.782-63.651 63.501c0 35.725 27.279 63.507 63.651 63.507zM563.41 704l-3.498-91.948-14.688-244.093h-67.148l-14.689 244.093-3.498 91.948h103.519z" />
<glyph unicode="&#xe93c;" glyph-name="invite" d="M480 832c123.711 0 224-100.288 224-224 0-77.097-38.95-145.097-98.245-185.395 88.94-39.186 155.308-123.040 196.914-244.358 8.339-24.32 15.533-59.642 21.587-105.958 4.576-35.046-20.128-67.168-55.174-71.75-2.746-0.358-5.517-0.538-8.288-0.538h-562.779c-35.347 0-64.001 28.653-64.001 64 0 2.79 0.182 5.574 0.546 8.346 5.349 40.685 13.216 75.987 23.599 105.901 43.006 123.898 107.226 206.519 195.283 244.94l-5.733 4.033c-55.604 40.759-91.708 106.554-91.708 180.781 0 123.712 100.288 224 224 224zM480 384c-123.745 0-207.334-71.034-261.38-226.739-7.38-21.261-13.427-46.419-18.024-75.411l-2.583-17.85h562.78l-2.118 15.398c-5.037 34.726-10.682 60.986-16.55 78.086-51.968 151.546-140.383 226.515-262.125 226.515zM896 672c17.67 0 32-14.327 32-32v-64h64c17.67 0 32-14.327 32-32s-14.33-32-32-32h-64v-64c0-17.673-14.33-32-32-32s-32 14.327-32 32l-0.064 64h-63.936c-17.67 0-32 14.327-32 32s14.33 32 32 32h64v64c0 17.673 14.33 32 32 32zM480 768c-88.365 0-160-71.635-160-160s71.635-160 160-160c88.365 0 160 71.635 160 160s-71.635 160-160 160z" />
<glyph unicode="&#xe93d;" glyph-name="keyboard" d="M864 800c70.694 0 128-57.308 128-128v-448c0-70.694-57.306-128-128-128h-704c-70.692 0-128 57.306-128 128v448c0 70.692 57.308 128 128 128h704zM864 736h-704c-32.822 0-59.873-24.707-63.569-56.536l-0.431-7.464v-448c0-32.819 24.707-59.872 56.536-63.571l7.464-0.429h704c32.819 0 59.872 24.704 63.571 56.538l0.429 7.462v448c0 32.822-24.704 59.873-56.538 63.569l-7.462 0.431zM768 352c17.67 0 32-14.327 32-32 0-17.67-14.33-32-32-32h-512c-17.673 0-32 14.33-32 32 0 17.673 14.327 32 32 32h512zM416 480v-64h-64v64h64zM288 480v-64h-64v64h64zM544 480v-64h-64v64h64zM672 480v-64h-64v64h64zM800 480v-64h-64v64h64zM416 608v-64h-64v64h64zM288 608v-64h-64v64h64zM544 608v-64h-64v64h64zM672 608v-64h-64v64h64zM800 608v-64h-64v64h64z" />
<glyph unicode="&#xe93e;" glyph-name="lab" d="M672 768c17.67 0.001 32 14.327 32 32s-14.33 31.999-32 32h-320.001c-17.673 0-32-14.327-32-32s14.328-32 32.001-32v-195.98c0-11.234-2.957-22.271-8.575-32l-217.096-376.020c-37.976-65.779 9.494-148 85.448-148h600.446c75.949 0 123.424 82.221 85.446 148l-217.094 376.020c-5.619 9.729-8.576 20.766-8.576 32v195.98zM416 572.020v195.98h192v-195.98c0-22.468 5.914-44.541 17.149-64l217.098-376.020c13.344-23.11-3.341-52-30.022-52h-600.446c-26.687 0-43.366 28.89-30.022 52l35.103 60.8c2.296-0.525 4.686-0.8 7.14-0.8h128c17.674 0 32 14.33 32 32s-14.326 32-32 32h-98.652l36.95 64h125.701c17.674 0 32 14.327 32 32s-14.326 32-32 32h-88.751l36.95 64h115.8c17.674 0 32 14.327 32 32s-14.326 32-32 32h-78.943c9.802 18.464 14.945 39.070 14.945 60.020z" />
<glyph unicode="&#xe93f;" glyph-name="language" d="M512 896c247.424 0 448-200.577 448-448s-200.576-448-448-448c-247.423 0-448 200.576-448 448s200.577 448 448 448zM620.085 255.898h-216.17c8.163-36.749 18.656-70.33 31.146-99.469 26.802-62.541 57.089-92.429 76.94-92.429s50.138 29.888 76.94 92.429c12.49 29.139 22.983 62.72 31.146 99.469zM338.487 255.949l-159.079-0.013c48.636-84.038 128.213-147.936 223.152-176.115-27.385 44.41-49.613 105.126-64.073 176.128zM844.589 255.936l-159.078 0.013c-14.458-71.002-36.685-131.718-64.119-176.173 94.986 28.224 174.564 92.122 223.197 176.16zM327.949 575.988l-178.106-0.008c-14.146-40.030-21.843-83.106-21.843-127.98 0-44.898 7.706-87.996 21.866-128.045l178.092-0.006c-5.178 40.572-7.958 83.554-7.958 128.051 0 44.474 2.778 87.434 7.949 127.988zM631.49 576.013h-238.98c-5.556-40.561-8.51-83.675-8.51-128.013 0-44.361 2.957-87.497 8.519-128.077h238.962c5.562 40.58 8.519 83.716 8.519 128.077 0 44.338-2.954 87.452-8.51 128.013zM874.157 575.98l-178.106 0.008c5.171-40.554 7.949-83.514 7.949-127.988 0-44.497-2.778-87.479-7.955-128.051l178.086 0.006c14.163 40.049 21.869 83.147 21.869 128.045 0 44.874-7.699 87.949-21.843 127.98zM402.609 816.225l-1.513-0.483c-94.317-28.406-173.342-92.104-221.725-175.745l159.103-0.011c14.46 71.028 36.692 131.77 64.134 176.238zM512 832c-19.851 0-50.138-29.891-76.94-92.427-12.497-29.16-22.995-62.761-31.16-99.535h216.198c-8.164 36.774-18.663 70.375-31.16 99.535-25.015 58.367-53.066 88.296-72.835 92.028l-4.105 0.399zM621.44 816.18l1.615-2.681c26.68-44.211 48.305-103.925 62.468-173.512l159.104 0.011c-48.634 84.074-128.224 147.997-223.187 176.182z" />
<glyph unicode="&#xe940;" glyph-name="lightning" d="M720.064 955.647c6.266-3.631 11.11-9.279 13.747-16.022 2.643-6.742 2.918-14.18 0.781-21.098l-115.264-374.528h212.672c6.253 0.002 12.365-1.825 17.587-5.258s9.325-8.319 11.802-14.057c2.477-5.738 3.226-12.076 2.138-18.231-1.082-6.155-3.942-11.859-8.23-16.406l-512-543.999c-4.954-5.267-11.546-8.704-18.703-9.747-7.156-1.037-14.454 0.371-20.704 4.013-6.25 3.635-11.084 9.28-13.714 16.019-2.63 6.733-2.9 14.163-0.767 21.075l115.264 374.591h-212.672c-6.25-0.003-12.364 1.825-17.587 5.258s-9.327 8.319-11.804 14.057c-2.478 5.738-3.221 12.076-2.138 18.231s3.945 11.859 8.232 16.406l512 544c4.947 5.261 11.533 8.693 18.675 9.739 7.149 1.046 14.438-0.357 20.685-3.979v-0.064z" />
<glyph unicode="&#xe941;" glyph-name="like_face" d="M73.025 635.371c34.454 137.553 154.667 203.788 268.613 196.017 39.563-2.698 67.86-11.958 96.279-25.304 29.679-13.937 55.471-32.854 76.853-55.304l1.366-1.545 4.956 5.132c65.84 66.372 165.057 93.845 258.945 64.081l10.042-3.409c133.517-48.395 202.79-196.611 154.726-331.049-18.778-52.52-47.84-100.214-85.299-143.181l-18.912-20.807c-20.058-21.48-49.862-52.116-90.854-93.512l-52.346-52.621-130.202-130.413c-24.246-24.288-63.332-25.126-88.598-1.901l-135.629 124.646c-58.517 53.779-113.526 110.189-164.988 169.215-30.738 35.255-51.514 61.149-67.483 86.207-8.772 13.764-16.495 27.721-23.692 44.639-21.135 49.683-31.342 98.982-13.777 169.108z" />
<glyph unicode="&#xe942;" glyph-name="like_half" d="M521.092 754.367l-4.956-5.132-1.366 1.545c-5.66 5.942-11.628 11.636-17.896 17.057-17.412 15.059-37.134 28-58.957 38.248-28.419 13.345-56.716 22.605-96.279 25.304-113.946 7.771-234.159-58.463-268.613-196.017-17.565-70.126-7.359-119.426 13.777-169.108 2.752-6.469 5.581-12.505 8.515-18.262 4.261-8.36 8.746-16.132 13.544-23.793 0.54-0.862 1.084-1.724 1.633-2.584 14.971-23.491 34.167-47.718 61.835-79.704 1.844-2.132 3.727-4.3 5.648-6.502 45.029-51.647 92.774-101.292 143.209-148.927 7.205-6.803 14.465-13.568 21.779-20.288l135.629-124.646c22.108-20.32 54.797-22.221 78.867-6.106 3.438 2.304 6.701 4.973 9.732 8.006l130.202 130.413 52.346 52.621c35.872 36.218 63.168 64.205 82.874 85.024 2.816 2.976 5.478 5.805 7.981 8.488l18.912 20.807c28.096 32.225 51.469 67.109 69.318 104.694 5.952 12.528 11.29 25.356 15.981 38.486 48.064 134.438-21.21 282.654-154.726 331.049l-10.042 3.409c-80.198 25.423-164.276 9.088-228.126-37.578-10.903-7.969-21.216-16.822-30.82-26.503zM857.952 448h-688.204c-1.848 2.719-3.604 5.386-5.283 8.019-7.228 11.342-13.188 22.173-18.771 35.297-16.821 39.54-24.12 74.478-10.588 128.504 25.992 103.767 115.155 153.65 202.177 147.715 30.233-2.062 50.79-8.751 73.43-19.382 22.015-10.339 41.091-24.255 56.954-40.72l46.399-52.472 52.745 54.616c49.446 49.642 123.448 69.951 193.311 48.044l8.717-2.959c99.725-36.495 151.942-147.762 115.706-249.128-7.098-19.854-15.987-39.029-26.592-57.534z" />
<glyph unicode="&#xe943;" glyph-name="like" d="M341.638 831.388c39.563-2.698 67.86-11.958 96.279-25.304 29.679-13.937 55.471-32.854 76.853-55.304l1.366-1.545 4.956 5.132c65.84 66.372 165.057 93.845 258.945 64.081l10.042-3.409c133.517-48.395 202.79-196.611 154.726-331.049-18.778-52.52-47.84-100.214-85.299-143.181l-18.912-20.807-23.36-24.59-41.805-42.899-25.69-26.022-182.548-183.034c-24.246-24.288-63.332-25.126-88.598-1.901l-135.629 124.646c-58.517 53.779-113.526 110.189-164.988 169.215l-11.070 12.798-19.58 23.364-16.568 21.053c-7.612 10.081-14.276 19.596-20.265 28.992-8.772 13.764-16.495 27.721-23.692 44.639-21.135 49.683-31.342 98.982-13.777 169.108 34.454 137.553 154.667 203.788 268.613 196.017zM337.284 767.536c-93.926 6.405-177.731-50.118-202.177-147.715-12.329-49.222-8.567-83.48 10.588-128.504 5.29-12.435 11.062-23.201 18.771-35.297l4.546-6.932 10.424-14.692c1.908-2.57 3.908-5.209 6.013-7.933l13.965-17.472 16.998-20.188c3.116-3.629 6.38-7.401 9.804-11.329 39.907-45.772 82.038-89.948 126.383-132.521l33.674-31.629 135.629-124.653 182.367 182.854 57.747 58.828 31.219 32.692 18.035 19.821c33.114 37.981 57.619 78.888 73.274 122.667 34.931 97.711-12.339 205.012-104.608 244.768l-10.438 4.136-8.8 3.002c-64.902 20.575-134.899 4.868-184.511-38.982l-9.057-8.55-53.064-54.947-45.873 51.88c-16.111 16.962-35.54 31.011-57.478 41.313-25.204 11.836-45.553 17.481-73.43 19.382z" />
<glyph unicode="&#xe944;" glyph-name="link" d="M652.314 375.568c-62.485-62.486-163.791-62.486-226.275 0l-9.051 9.052c-12.497 12.497-12.497 32.758 0 45.254s32.758 12.497 45.255 0l9.051-9.051c37.491-37.491 98.274-37.491 135.764 0l181.019 181.020c37.491 37.49 37.491 98.274 0 135.764s-98.272 37.49-135.763 0l-90.511-90.51c-12.497-12.497-32.758-12.497-45.254 0s-12.497 32.758 0 45.255l90.509 90.509c62.484 62.484 163.79 62.484 226.273 0s62.483-163.79 0-226.274l-181.018-181.020zM358.157 533.96c62.484 62.484 163.79 62.484 226.274 0l9.051-9.052c12.497-12.497 12.497-32.758 0-45.254s-32.758-12.497-45.254 0l-9.051 9.051c-37.491 37.491-98.275 37.491-135.765 0l-181.019-181.019c-37.491-37.491-37.491-98.272 0-135.763s98.274-37.491 135.764 0l90.509 90.509c12.497 12.493 32.758 12.493 45.255 0 12.497-12.499 12.497-32.762 0-45.254l-90.51-90.509c-62.484-62.483-163.79-62.483-226.274 0s-62.484 163.789 0 226.272l181.020 181.020z" />
<glyph unicode="&#xe945;" glyph-name="list" d="M224 320c53.020 0 96-42.982 96-96s-42.98-96-96-96c-53.020 0-96 42.982-96 96s42.98 96 96 96zM224 256c-17.673 0-32-14.33-32-32s14.327-32 32-32c17.673 0 32 14.33 32 32s-14.327 32-32 32zM864 256c17.67 0 32-14.33 32-32s-14.33-32-32-32h-448c-17.673 0-32 14.33-32 32s14.327 32 32 32h448zM224 576c53.020 0 96-42.98 96-96s-42.98-96-96-96c-53.020 0-96 42.98-96 96s42.98 96 96 96zM864 512c17.67 0 32-14.327 32-32s-14.33-32-32-32h-448c-17.673 0-32 14.327-32 32s14.327 32 32 32h448zM224 512c-17.673 0-32-14.327-32-32s14.327-32 32-32c17.673 0 32 14.327 32 32s-14.327 32-32 32zM224 832c53.020 0 96-42.98 96-96s-42.98-96-96-96c-53.020 0-96 42.98-96 96s42.98 96 96 96zM864 768c17.67 0 32-14.327 32-32s-14.33-32-32-32h-448c-17.673 0-32 14.327-32 32s14.327 32 32 32h448zM224 768c-17.673 0-32-14.327-32-32s14.327-32 32-32c17.673 0 32 14.327 32 32s-14.327 32-32 32z" />
<glyph unicode="&#xe946;" glyph-name="lock" d="M512 896c141.382 0 256-114.615 256-256v-63.936l42.669-0.064c47.123 0 85.331-38.205 85.331-85.333v-405.336c0-47.123-38.208-85.331-85.331-85.331h-597.336c-47.128 0-85.333 38.208-85.333 85.331v405.336c0 47.128 38.205 85.333 85.333 85.333l42.667 0.064v63.936c0 141.385 114.615 256 256 256zM810.669 512l-42.669 0.064v-0.064h-554.667c-10.309 0-18.911-7.313-20.9-17.034l-0.433-4.299v-405.336c0-10.31 7.313-18.906 17.034-20.896l4.299-0.435h597.336c10.31 0 18.906 7.315 20.896 17.037l0.435 4.294v405.336c0 10.309-7.315 18.911-17.037 20.9l-4.294 0.433zM512 832c-102.252 0-185.834-79.931-191.674-180.719l-0.326-11.281v-63.936h384v63.936c0 102.252-79.931 185.834-180.719 191.674l-11.281 0.326z" />
<glyph unicode="&#xe947;" glyph-name="locked_face" d="M512 896l14.262-0.525c99.944-7.373 177.738-90.76 177.738-191.475v-192h80c26.509 0 48-21.491 48-48v-416c0-26.509-21.491-48-48-48h-544c-26.509 0-48 21.491-48 48v416c0 26.509 21.491 48 48 48h80l0.043 194.351 0.482 11.911c7.373 99.944 90.76 177.738 191.475 177.738zM512 320c-35.346 0-64-28.653-64-64s28.654-64 64-64c35.346 0 64 28.653 64 64s-28.654 64-64 64zM512 832l-10.026-0.387c-62.856-4.87-112.981-55.141-117.623-118.061l-0.351-9.553v-192h256v192l-0.387 10.026c-4.87 62.856-55.141 112.981-118.061 117.623l-9.553 0.351z" />
<glyph unicode="&#xe948;" glyph-name="locked_fill" d="M704 576h-384v64c0 106.038 85.962 192 192 192s192-85.962 192-192v-64zM768 576v64c0 141.385-114.618 256-256 256-141.385 0-256-114.615-256-256v-64c-70.692 0-128-57.308-128-128v-256c0-106.042 85.962-192 192-192h384c106.042 0 192 85.958 192 192v256c0 70.692-57.306 128-128 128zM544 294.656v-70.656c0-17.67-14.327-32-32-32s-32 14.33-32 32v70.656c-28.255 12.346-48 40.539-48 73.344 0 44.183 35.817 80 80 80s80-35.817 80-80c0-32.805-19.745-60.998-48-73.344z" />
<glyph unicode="&#xe949;" glyph-name="login" d="M512 800c0 17.673-14.327 32-32 32h-288c-70.692 0-128-57.308-128-128v-576l0.351-9.555c4.886-66.227 60.17-118.445 127.649-118.445h288c17.673 0 32 14.33 32 32s-14.327 32-32 32h-288l-7.464 0.429c-29.381 3.418-52.693 26.726-56.106 56.109l-0.431 7.462v576l0.431 7.464c3.697 31.83 30.748 56.536 63.569 56.536h288c17.673 0 32 14.327 32 32zM491.647 164.826l4.432-3.706c12.472-8.64 29.715-7.405 40.823 3.706l3.702 4.429c8.64 12.474 7.405 29.715-3.702 40.826l-169.409 169.372 533.058-0.001c17.67 0 32 14.327 32 32s-14.33 32-32 32l-537.41 0.001 173.761 173.921 3.702 4.432c8.64 12.472 7.405 29.715-3.702 40.823-12.497 12.497-32.758 12.497-45.255 0l-226.274-226.275-3.703-4.432c-8.639-12.471-7.405-29.715 3.703-40.822l226.274-226.273z" />
<glyph unicode="&#xe94a;" glyph-name="logout" d="M480 832c17.673 0 32-14.327 32-32s-14.327-32-32-32h-288c-32.822 0-59.873-24.707-63.569-56.536l-0.431-7.464v-576l0.431-7.462c3.412-29.382 26.724-52.691 56.106-56.109l7.464-0.429h288c17.673 0 32-14.33 32-32s-14.327-32-32-32h-288c-67.479 0-122.763 52.218-127.649 118.445l-0.351 9.555v576c0 70.692 57.308 128 128 128h288zM756.467 666.33l4.435-3.703 226.272-226.274c11.11-11.108 12.346-28.351 3.706-40.823l-3.706-4.432-226.272-226.273c-12.499-12.499-32.762-12.499-45.254 0-11.11 11.104-12.346 28.352-3.706 40.819l3.706 4.435 173.76 173.92h-537.408c-17.673 0-32 14.327-32 32s14.327 32 32 32h533.056l-169.408 169.373c-11.11 11.108-12.346 28.351-3.706 40.823l3.706 4.431c11.104 11.108 28.352 12.342 40.819 3.703z" />
<glyph unicode="&#xe94b;" glyph-name="map" d="M832 512c0 176.731-143.27 320-320 320s-320-143.269-320-320c0-89.427 46.124-185.482 112.129-275.245 64.991-88.384 143.299-162.662 194.61-207.136 8.118-7.040 18.762-7.034 26.849-0.070 51.305 44.186 129.516 117.997 194.406 206.195 65.843 89.5 112.006 185.774 112.006 276.256zM896 512c0-221.446-222.336-439.392-328.649-530.944-32.179-27.712-78.443-27.616-110.532 0.198-106.244 92.096-328.819 311.219-328.819 530.746 0 212.077 171.923 384 384 384s384-171.923 384-384zM640 512c0 70.692-57.308 128-128 128s-128-57.308-128-128c0-70.692 57.308-128 128-128s128 57.308 128 128zM704 512c0-106.038-85.962-192-192-192s-192 85.962-192 192c0 106.038 85.962 192 192 192s192-85.962 192-192z" />
<glyph unicode="&#xe94c;" glyph-name="matching" d="M551.064 871.155l309.096-82.822c51.213-13.722 81.606-66.363 67.885-117.576l-132.518-494.552c-12.582-46.95-57.869-76.403-104.781-70.406 4.608 15.187 6.445 31.494 4.979 48.275l-1.408 16.122 0.198-0.058c17.069-4.57 34.618 5.562 39.194 22.63l132.512 494.553c4.576 17.071-5.555 34.618-22.624 39.192l-309.098 82.822c-17.071 4.574-34.618-5.556-39.192-22.627l-2.118-7.907-67.848-5.936 8.148 30.408c13.722 51.212 66.363 81.604 117.576 67.882zM515.221 748.604l-318.782-27.889c-52.818-4.621-91.889-51.185-87.268-104.002l44.623-510.051c4.621-52.819 51.185-91.891 104.002-87.27l318.782 27.891c52.818 4.621 91.889 51.187 87.268 104l-44.623 510.054c-4.621 52.817-51.184 91.889-104.002 87.267zM172.927 622.291c-1.54 17.606 11.484 33.126 29.089 34.667l318.783 27.89c17.606 1.54 33.126-11.484 34.667-29.089l44.624-510.050c1.54-17.606-11.484-33.126-29.089-34.669l-318.783-27.891c-17.606-1.536-33.126 11.482-34.667 29.088l-44.624 510.054z" />
<glyph unicode="&#xe94d;" glyph-name="member" d="M230.4 864h512c66.637 0 121.933-48.486 132.557-112.102 2.714-16.246-10.925-28.698-25.888-28.698-15.597 0-26.784 12.643-30.17 25.939-8.691 34.147-39.654 59.395-76.499 59.395h-512c-43.594 0-78.933-35.34-78.933-78.933v-554.669c0-43.59 35.34-78.931 78.933-78.931h512c16.275 0 31.386 4.922 43.942 13.35 6.707 4.506 14.848 7.981 23.795 7.981h6.15c10.56 0 19.315-5.702 23.405-13.709 4.205-8.237 3.251-18.573-4.864-26.259-24.083-22.822-56.627-36.832-92.429-36.832h-512c-74.227 0-134.4 60.173-134.4 134.4v554.669c0 74.227 60.173 134.4 134.4 134.4zM586.283 416.829c10.42 5.472 22.367 2.662 30.566-4.075 0.702-0.577 1.41-1.149 2.122-1.715 6.96-5.529 9.080-14.532 8.211-22.221-0.87-7.691-4.938-15.973-12.81-19.924-46.805-23.492-78.905-71.914-78.905-127.825 0-8.25 6.685-14.938 14.933-14.938h341.331c8.25 0 14.938 6.688 14.938 14.938 0 55.91-32.102 104.332-78.906 127.825-7.872 3.951-11.942 12.234-12.813 19.924s1.254 16.692 8.211 22.221c0.71 0.566 1.421 1.137 2.125 1.715 8.198 6.737 20.141 9.547 30.566 4.075 63.168-33.174 106.278-99.428 106.278-175.761 0-38.88-31.52-70.4-70.4-70.4h-341.331c-38.881 0-70.4 31.52-70.4 70.4 0 76.333 43.11 142.586 106.283 175.761zM721.069 460.8c55.373 0 100.262 44.891 100.262 100.267s-44.89 100.266-100.262 100.266c-55.379 0-100.269-44.891-100.269-100.266s44.89-100.267 100.269-100.267zM876.8 561.067c0-86.010-69.722-155.734-155.731-155.734-86.011 0-155.735 69.724-155.735 155.734s69.724 155.733 155.735 155.733c86.010 0 155.731-69.724 155.731-155.733zM208 665.599c0 15.316 12.417 27.733 27.733 27.733h261.334c15.316 0 27.733-12.417 27.733-27.733s-12.417-27.733-27.733-27.733h-261.334c-15.316 0-27.733 12.417-27.733 27.733zM208 537.599c0 15.316 12.417 27.733 27.733 27.733h197.334c15.316 0 27.733-12.417 27.733-27.733s-12.417-27.733-27.733-27.733h-197.334c-15.316 0-27.733 12.417-27.733 27.733z" />
<glyph unicode="&#xe94e;" glyph-name="membership_face" d="M851.981 192v-42.669c0-47.123-38.208-85.331-85.331-85.331h-512.003c-47.128 0-85.334 38.208-85.334 85.331v42.669h682.668zM533.365 826.228c6.316-3.678 11.572-8.925 15.257-15.231l132.946-227.521 222.144 76.938c22.118 7.661 46.272-4.029 53.946-26.11 2.733-7.857 3.085-16.344 1.011-24.399l-91.085-353.905h-711.168l-91.073 353.905c-5.825 22.637 7.836 45.702 30.512 51.517 8.069 2.069 16.57 1.718 24.441-1.007l222.143-76.938 132.949 227.521c11.797 20.188 37.754 27.007 57.977 15.231zM512 556.8c-53.020 0-96-42.98-96-96s42.98-96 96-96c53.020 0 96 42.98 96 96s-42.98 96-96 96z" />
<glyph unicode="&#xe94f;" glyph-name="membership" d="M533.365 826.228c6.316-3.678 11.572-8.925 15.257-15.231l132.946-227.521 222.144 76.938c22.118 7.661 46.272-4.029 53.946-26.11 2.733-7.857 3.085-16.344 1.011-24.399l-106.701-414.641 0.013-45.933c0-47.123-38.208-85.331-85.331-85.331h-512.003c-47.128 0-85.334 38.208-85.334 85.331l-0.033 56.621-103.937 403.953c-5.825 22.637 7.836 45.702 30.512 51.517 8.069 2.069 16.57 1.718 24.441-1.007l222.143-76.938 132.949 227.521c11.797 20.188 37.754 27.007 57.977 15.231zM787.904 192h-554.688l0.097-42.669c0-10.31 7.313-18.906 17.034-20.896l4.3-0.435h512.003c10.304 0 18.906 7.315 20.896 17.037l0.435 4.294-0.077 42.669zM512.005 747.743l-140.995-241.35-234.297 81.196 85.302-331.524h579.84l85.376 331.524-234.234-81.196-140.993 241.35zM514.913 492.138c53.020 0 96-42.981 96-96s-42.98-96.003-96-96.003c-53.019 0-96 42.984-96 96.003s42.981 96 96 96zM514.913 428.138c-17.673 0-32-14.327-32-32s14.327-32 32-32c17.673 0 32 14.327 32 32s-14.327 32-32 32z" />
<glyph unicode="&#xe950;" glyph-name="mic" d="M480.001 864c-77.407 0-141.974-54.968-156.799-128h92.799c17.673 0 32-14.327 32-32s-14.327-32-32-32h-95.999v-64h95.999c17.673 0 32-14.327 32-32s-14.327-32-32-32h-95.999v-32c0-88.365 71.635-160 160-160h64c88.365 0 159.999 71.635 159.999 160v192c0 88.365-71.633 160-159.999 160h-64zM256.001 704c0 123.712 100.289 224 224 224h64c123.711 0 223.999-100.288 223.999-224v-192c0-123.712-100.288-224-223.999-224h-64c-123.711 0-224 100.288-224 224v192zM544.001 160h40.391c172.581 0 314.072 136.851 319.82 309.339l3.27 97.933c0.589 17.663-13.254 32.46-30.918 33.048s-32.461-13.253-33.050-30.916l-3.264-97.934c-4.602-137.988-117.792-247.471-255.858-247.471h-144.783c-138.065 0-251.258 109.483-255.858 247.471l-3.265 97.933c-0.589 17.663-15.385 31.505-33.048 30.916s-31.505-15.385-30.916-33.048l3.264-97.933c5.75-172.488 147.242-309.339 319.823-309.339h40.392v-128h-192c-17.673 0-32-14.33-32-32s14.327-32 32-32h447.999c17.677 0 32 14.33 32 32s-14.323 32-32 32h-191.999v128z" />
<glyph unicode="&#xe951;" glyph-name="mission" d="M877.901 941.899c7.456 7.458 20.23 3.201 21.722-7.241l9.222-64.555c0.8-5.631 5.229-10.056 10.861-10.861l64.55-9.222c10.445-1.491 14.701-14.264 7.245-21.722l-105.178-105.174c-2.848-2.849-6.874-4.19-10.861-3.62l-48.474 6.925-295.675-295.677c-12.497-12.497-32.758-12.497-45.255 0s-12.497 32.758 0 45.255l132.041 132.040c-30.396 20.191-66.874 31.954-106.1 31.954-106.038 0-192-85.961-192-192s85.962-192 192-192c106.038 0 192 85.962 192 192 0 22.9-4.006 44.863-11.366 65.227l48.288 49.484c17.325-34.506 27.078-73.469 27.078-114.711 0-141.382-114.618-256-256-256-141.385 0-256 114.618-256 256 0 141.385 114.615 256 256 256 56.931 0 109.522-18.584 152.038-50.017l91.181 91.184c-66.227 54.268-150.918 86.833-243.219 86.833-212.077 0-384-171.923-384-384s171.923-384 384-384c212.077 0 384 171.923 384 384 0 77.412-22.906 149.473-62.31 209.776l45.632 46.764c50.848-72.667 80.678-161.12 80.678-256.54 0-247.424-200.576-448-448-448s-448 200.576-448 448c0 247.424 200.577 448 448 448 96.429 0 185.741-30.466 258.842-82.298l-1.741 12.161c-0.57 3.988 0.774 8.013 3.622 10.861l105.178 105.174z" />
<glyph unicode="&#xe952;" glyph-name="mode_dark" d="M64 448c0 247.423 200.577 448 448 448s448-200.577 448-448c0-247.424-200.576-448-448-448s-448 200.576-448 448zM512 816v-736c203.238 0 368 164.762 368 368 0 203.241-164.762 368-368 368z" />
<glyph unicode="&#xe953;" glyph-name="mode_light" d="M960 448c0-247.424-200.576-448-448-448s-448 200.576-448 448c0 247.423 200.577 448 448 448s448-200.577 448-448zM512 80v736c-203.241 0-368-164.759-368-368 0-203.238 164.759-368 368-368z" />
<glyph unicode="&#xe954;" glyph-name="more" d="M512 224c53.020 0 96-42.982 96-96s-42.98-96-96-96c-53.020 0-96 42.982-96 96s42.98 96 96 96zM512 544c53.020 0 96-42.98 96-96s-42.98-96-96-96c-53.020 0-96 42.98-96 96s42.98 96 96 96zM512 864c53.020 0 96-42.98 96-96s-42.98-96-96-96c-53.020 0-96 42.98-96 96s42.98 96 96 96z" />
<glyph unicode="&#xe955;" glyph-name="more2" d="M320 448c0-35.346-28.654-64-64-64s-64 28.654-64 64c0 35.346 28.654 64 64 64s64-28.654 64-64zM576 448c0-35.346-28.654-64-64-64s-64 28.654-64 64c0 35.346 28.654 64 64 64s64-28.654 64-64zM768 384c35.347 0 64 28.654 64 64s-28.653 64-64 64c-35.347 0-64-28.654-64-64s28.653-64 64-64z" />
<glyph unicode="&#xe956;" glyph-name="movie_fill" d="M85.334 789.632c0.078 11.205 4.561 21.93 12.48 29.857s18.64 12.421 29.845 12.511h768.68c23.386 0 42.33-18.987 42.33-42.368v-683.264c-0.083-11.206-4.563-21.933-12.48-29.856-7.923-7.93-18.643-12.422-29.85-12.512h-768.68c-11.229 0.013-21.995 4.48-29.931 12.422-7.937 7.949-12.394 18.714-12.394 29.946v683.264zM453.206 600.96c-2.568 1.713-5.553 2.698-8.636 2.849s-6.15-0.536-8.873-1.99c-2.723-1.454-5.002-3.619-6.592-6.264s-2.433-5.674-2.438-8.76v-277.592c0.006-3.085 0.849-6.112 2.438-8.755 1.59-2.65 3.869-4.813 6.592-6.266s5.789-2.144 8.873-1.99c3.083 0.147 6.067 1.133 8.636 2.848l208.17 138.752c2.342 1.558 4.262 3.67 5.587 6.149 1.331 2.479 2.022 5.247 2.022 8.059s-0.691 5.58-2.022 8.059c-1.325 2.479-3.245 4.591-5.587 6.149l-208.17 138.752z" />
<glyph unicode="&#xe957;" glyph-name="myinfo" d="M512 896c141.382 0 256-114.615 256-256 0-91.766-48.282-172.255-120.832-217.448 145.382-56.622 248.832-202.168 248.832-372.773 0-27.494-22.285-49.779-49.779-49.779h-668.443c-25.201 0-46.028 18.726-49.324 43.021l-0.454 6.758c0 170.605 103.452 316.151 248.85 372.857-72.566 45.108-120.85 125.597-120.85 217.364 0 141.385 114.615 256 256 256zM512 384c-171.682 0-312.604-141.574-319.852-316.083l-0.084-3.917 639.654-0.058c-6.925 173.786-140.71 312.58-306.23 319.765l-13.488 0.292zM512 832c-106.038 0-192-85.962-192-192s85.962-192 192-192c106.038 0 192 85.962 192 192s-85.962 192-192 192z" />
<glyph unicode="&#xe958;" glyph-name="noti" d="M512 896c212.077 0 384-171.923 384-384 0-6.052-0.141-12.071-0.416-18.054 0.275-4.597 0.416-9.254 0.416-13.946v-203.853c0-13.248 3.085-26.317 9.011-38.163l24.115-48.237c10.541-21.075 1.997-46.707-19.078-57.242-5.926-2.963-12.461-4.506-19.085-4.506l-197.907-0.058c-26.374-74.541-97.479-127.942-181.056-127.942s-154.68 53.402-181.054 127.942l-197.91 0.058c-23.564 0-42.666 19.104-42.666 42.669 0 6.624 1.542 13.152 4.504 19.078l24.117 48.237c5.924 11.846 9.009 24.915 9.009 38.163v203.853c0 4.691 0.145 9.348 0.429 13.968-0.289 5.961-0.429 11.98-0.429 18.032 0 212.077 171.923 384 384 384zM622.784 128h-221.568l2.782-4.755c21.149-33.133 57.125-55.814 98.39-58.886l9.612-0.358c44.986 0 84.552 23.206 107.379 58.304l3.405 5.696zM512 832c-176.731 0-320-143.269-320-320l0.088-7.547 0.266-7.393-0.354-17.060v-203.853c0-18.547-3.454-36.89-10.145-54.106l-5.62-12.678-8.747-17.363h688.96l-8.685 17.363c-8.294 16.589-13.408 34.534-15.117 52.922l-0.646 13.862v203.853l-0.346 16.904 0.346 15.096c0 176.731-143.27 320-320 320z" />
<glyph unicode="&#xe959;" glyph-name="picture" d="M512 608c0 53.020-42.98 96-96 96s-96-42.98-96-96c0-53.020 42.98-96 96-96s96 42.98 96 96zM448 608c0-17.673-14.327-32-32-32s-32 14.327-32 32c0 17.673 14.327 32 32 32s32-14.327 32-32zM64 704v-512c0-70.694 57.308-128 128-128h640c70.694 0 128 57.306 128 128v512c0 70.692-57.306 128-128 128h-640c-70.692 0-128-57.308-128-128zM192 768h640c35.347 0 64-28.654 64-64v-338.746l-169.37 169.373c-11.917 11.913-31.027 12.549-43.706 1.455l-240.773-210.679-101.888 83.363c-12.001 9.819-29.316 9.621-41.089-0.47l-171.175-146.722v442.426c0 35.346 28.654 64 64 64zM702.541 468.204l193.459-193.458v-82.746c0-35.347-28.653-64-64-64h-148.576l-191.046 156.307 210.163 183.896zM129.425 178.502l191.053 163.761 261.877-214.263h-390.355c-30.716 0-56.378 21.638-62.575 50.502z" />
<glyph unicode="&#xe95a;" glyph-name="pin" d="M611.633 839.202c-36.349 20.986-82.829 8.532-103.815-27.817l-85.159-147.501-152.408-122.318c-19.566-15.703-30.122-40.051-28.208-65.067s16.050-47.475 37.777-60.019l131.638-76.001-125.954-218.156c-10.493-18.176-4.266-41.414 13.908-51.91 18.175-10.49 41.414-4.269 51.907 13.907l125.954 218.163 131.626-76c21.727-12.544 48.246-13.555 70.864-2.701 22.624 10.848 38.432 32.16 42.246 56.96l29.728 193.148 85.158 147.501c20.986 36.349 8.531 82.829-27.814 103.815l-197.449 113.996z" />
<glyph unicode="&#xe95b;" glyph-name="play_store" d="M852.070 456.718l3.27-2.814c-0.998 0.946-2.086 1.885-3.27 2.814zM855.341 453.904l1.472-1.469c-0.467 0.491-0.96 0.981-1.472 1.469zM857.21 452.004l1.843-2.189c-0.557 0.73-1.171 1.46-1.843 2.189zM857.21 452.004l-0.397 0.431 0.243-0.246 0.154-0.184zM1024 448c0-282.771-229.229-512-512-512s-512 229.229-512 512c0 282.77 229.23 512 512 512s512-229.23 512-512zM618.88 419.904l-285.34-285.414c3.645 1.082 7.537 2.758 11.605 5.069l353.286 200.794-79.552 79.552zM305.216 733.632l-0.834-4.737-0.382-7.052 0.014-560.077 0.315-5.178 0.823-5.165 291.072 291.136-291.008 291.072zM727.296 528.384l-85.824-85.824 85.824-85.824 117.069 66.465c9.862 5.61 15.795 11.926 17.92 16.662l0.563 1.93-0.48 2.191c-0.71 1.915-1.818 3.872-3.315 5.832-0.595 0.794-1.261 1.585-1.997 2.374-1.44 1.547-3.13 3.088-5.069 4.604l0.083-0.074c-0.512 0.404-1.043 0.806-1.594 1.206l-6.106 3.915-19.283 10.993-97.792 55.552zM333.567 750.536l285.313-285.32 79.552 79.552-353.261 200.705c-4.085 2.311-7.976 3.988-11.604 5.064z" />
<glyph unicode="&#xe95c;" glyph-name="player_forward" d="M524.251 742.442c20.268 28.258 58.564 33.953 85.538 12.719l325.814-256.477c4.627-3.644 8.736-7.957 12.205-12.812 20.224-28.296 14.72-68.406-12.294-89.588l-325.813-255.517c-10.566-8.288-23.411-12.768-36.61-12.768-33.74 0-61.091 28.653-61.091 64v511.997c0 13.867 4.3 27.359 12.251 38.445zM76.251 742.442c20.268 28.258 58.564 33.953 85.538 12.719l325.815-256.477c4.628-3.644 8.738-7.957 12.207-12.812 20.22-28.296 14.715-68.406-12.295-89.588l-325.816-255.517c-10.566-8.288-23.411-12.768-36.61-12.768-33.74 0-61.091 28.653-61.091 64v511.997c0 13.867 4.3 27.359 12.251 38.445z" />
<glyph unicode="&#xe95d;" glyph-name="player_pause" d="M320 832c35.346 0 64-28.654 64-64v-640c0-35.347-28.654-64-64-64s-64 28.653-64 64v640c0 35.346 28.654 64 64 64zM704 832c35.347 0 64-28.654 64-64v-640c0-35.347-28.653-64-64-64s-64 28.653-64 64v640c0 35.346 28.653 64 64 64z" />
<glyph unicode="&#xe95e;" glyph-name="player_playFace" d="M192 784.468v-673.147c0-35.347 28.654-64 64-64 11.314 0 22.426 3.002 32.203 8.691l576.981 335.945c30.547 17.785 40.89 56.964 23.11 87.51-5.555 9.541-13.485 17.482-23.021 23.053l-576.981 337.203c-30.516 17.835-69.713 7.554-87.548-22.963-5.727-9.799-8.744-20.944-8.744-32.293z" />
<glyph unicode="&#xe95f;" glyph-name="player_rewind" d="M947.75 742.442c7.949-11.086 12.25-24.579 12.25-38.445v-511.997c0-35.347-27.354-64-61.088-64-13.203 0-26.048 4.48-36.614 12.768l-325.814 255.517c-27.010 21.182-32.515 61.292-12.295 89.588 3.469 4.854 7.58 9.168 12.207 12.812l325.818 256.477c26.97 21.233 65.267 15.539 85.536-12.719zM499.749 742.442c7.951-11.086 12.251-24.579 12.251-38.445v-511.997c0-35.347-27.351-64-61.091-64-13.199 0-26.044 4.48-36.61 12.768l-325.816 255.517c-27.010 21.182-32.514 61.292-12.295 89.588 3.469 4.854 7.58 9.168 12.207 12.812l325.815 256.477c26.973 21.233 65.27 15.539 85.538-12.719z" />
<glyph unicode="&#xe960;" glyph-name="player_stop" d="M256 832h512c70.692 0 128-57.308 128-128v-512c0-70.692-57.308-128-128-128h-512c-70.692 0-128 57.308-128 128v512c0 70.692 57.308 128 128 128z" />
<glyph unicode="&#xe961;" glyph-name="policy" d="M768 896c70.694 0 128-57.308 128-128v-640c0-70.694-57.306-128-128-128h-512c-70.692 0-128 57.306-128 128v640c0 70.692 57.308 128 128 128h512zM768 832h-512c-32.822 0-59.873-24.707-63.569-56.536l-0.431-7.464v-640c0-32.819 24.707-59.872 56.536-63.571l7.464-0.429h512c32.819 0 59.872 24.704 63.571 56.538l0.429 7.462v640c0 32.822-24.704 59.873-56.538 63.569l-7.462 0.431zM544 384c17.673 0 32-14.327 32-32s-14.327-32-32-32h-192c-17.673 0-32 14.327-32 32s14.327 32 32 32h192zM672 576c17.67 0 32-14.327 32-32s-14.33-32-32-32h-320c-17.673 0-32 14.327-32 32s14.327 32 32 32h320z" />
<glyph unicode="&#xe962;" glyph-name="post" d="M256 448c0 17.673 14.327 32 32 32h192v192c0 17.673 14.327 32 32 32s32-14.327 32-32v-192h192c17.67 0 32-14.327 32-32s-14.33-32-32-32h-192v-192c0-17.67-14.327-32-32-32s-32 14.33-32 32v192h-192c-17.673 0-32 14.327-32 32zM512-64c-282.77 0-512 229.229-512 512s229.23 512 512 512c282.771 0 512-229.23 512-512s-229.229-512-512-512zM512 0c247.424 0 448 200.576 448 448s-200.576 448-448 448c-247.423 0-448-200.577-448-448s200.577-448 448-448z" />
<glyph unicode="&#xe963;" glyph-name="profile" d="M512 960c282.771 0 512-229.23 512-512s-229.229-512-512-512l-12.065 0.090c-1.556-0.038-3.098-0.058-4.625-0.058-4.040 0-8.212 0.262-12.514 0.762-269.19 15.168-482.796 238.24-482.796 511.206 0 282.77 229.23 512 512 512zM511.978 320c-133.183 0-243.224-106.534-255.032-240.314 72.381-50.259 160.281-79.686 255.054-79.686 94.605 0 182.362 29.325 254.675 79.379-12.576 131.795-116.486 234.854-243.908 240.384l-10.789 0.237zM512 896c-247.423 0-448-200.577-448-448 0-126.881 52.746-241.446 137.508-322.957 0.524 2.464 0.908 4.339 1.23 5.638 26.204 105.030 98.187 190.154 191.769 229.576-45.33 34.999-74.508 89.964-74.508 151.742 0 106.038 85.962 192 192 192s192-85.962 192-192c0-61.779-29.178-116.743-74.505-151.863 95.203-39.99 168.041-127.382 193.084-234.921 84.73 81.459 137.421 195.967 137.421 322.784 0 247.423-200.576 448-448 448zM512 640c-70.692 0-128-57.308-128-128s57.308-128 128-128c70.692 0 128 57.308 128 128s-57.308 128-128 128z" />
<glyph unicode="&#xe964;" glyph-name="qr" d="M960 128c0-70.694-57.306-128-128-128h-128v64h128c35.347 0 64 28.653 64 64v128h64v-128zM320 0v64h-128c-35.346 0-64 28.653-64 64v128h-64v-128c0-70.694 57.308-128 128-128h128zM832 832h-128v64h128c70.694 0 128-57.308 128-128v-128h-64v128c0 35.346-28.653 64-64 64zM320 832v64h-128c-70.692 0-128-57.308-128-128v-128h64v128c0 35.346 28.654 64 64 64h128zM672 704h-320c-53.020 0-96-42.98-96-96v-96h64v96c0 17.673 14.327 32 32 32h320c17.67 0 32-14.327 32-32v-96h64v96c0 53.020-42.982 96-96 96zM256 288c0-53.018 42.98-96 96-96h320c53.018 0 96 42.982 96 96v96h160c17.67 0 32 14.327 32 32s-14.33 32-32 32h-832c-17.673 0-32-14.327-32-32s14.327-32 32-32h160v-96zM704 384v-96c0-17.67-14.33-32-32-32h-320c-17.673 0-32 14.33-32 32v96h384z" />
<glyph unicode="&#xe965;" glyph-name="question" d="M919.040 160.256l-124.928-129.024-13.312 13.312c3.411 3.411 6.144 7.846 8.192 13.312 2.048 4.774 1.702 8.192-1.024 10.24l-59.392 55.296c-68.269-49.837-142.678-74.752-223.233-74.752-78.507 0-149.163 17.747-211.968 53.248-62.123 35.494-110.933 83.283-146.432 143.36-34.816 60.070-52.224 125.608-52.224 196.605 0 73.728 17.067 141.654 51.2 203.776 34.816 62.806 83.627 112.64 146.432 149.504 63.488 37.547 136.192 56.321 218.112 56.321 76.459 0 144.040-18.774 202.753-56.321 59.392-36.864 105.126-86.698 137.216-149.504 32.768-62.122 49.152-130.048 49.152-203.776 0-36.864-6.829-74.752-20.48-113.664-12.973-38.23-32.090-74.749-57.344-109.565l58.368-54.272c0.678-0.685 2.048-1.024 4.096-1.024 3.411 0 7.168 1.024 11.264 3.072 4.096 2.726 7.168 5.459 9.216 8.192l14.336-14.336zM508.415 177.664c46.421 0 89.088 10.579 128 31.744l-107.52 99.328c-0.683 0.678-2.048 1.024-4.096 1.024-3.413 0-7.168-1.37-11.264-4.096-4.096-2.048-7.168-4.442-9.216-7.168l-14.336 14.336 125.952 127.997 13.312-13.312c-3.413-3.413-6.144-7.85-8.192-13.312-2.048-4.778-1.707-8.192 1.024-10.24l112.641-104.445c27.302 42.323 40.96 88.744 40.96 139.261 0 52.565-11.61 100.693-34.816 144.383-22.528 44.374-54.272 79.531-95.232 105.472-40.278 25.942-86.017 38.912-137.217 38.912-52.565 0-100.011-12.288-142.336-36.864-42.325-23.893-75.435-57.344-99.328-100.352-23.211-43.008-34.816-91.136-34.816-144.384 0-54.613 11.947-102.4 35.84-143.357 23.893-40.282 56.661-71.341 98.304-93.184 42.325-21.165 89.771-31.744 142.336-31.744z" />
<glyph unicode="&#xe966;" glyph-name="rating" d="M534.599 921.377c12.622-6.229 22.838-16.445 29.067-29.067l111.892-226.716 250.195-36.355c34.976-5.083 59.213-37.559 54.131-72.538-2.022-13.928-8.582-26.802-18.662-36.626l-181.043-176.474 42.739-249.187c5.978-34.835-17.421-67.923-52.262-73.894-13.869-2.381-28.141-0.122-40.602 6.432l-223.779 117.645-223.782-117.645c-31.286-16.448-69.982-4.422-86.43 26.861-6.55 12.461-8.81 26.733-6.431 40.602l42.739 249.187-181.043 176.474c-25.311 24.672-25.829 65.191-1.157 90.502 9.825 10.079 22.698 16.638 36.626 18.662l250.196 36.355 111.891 226.716c15.643 31.696 54.019 44.71 85.715 29.067zM633.057 607.098l-126.782 256.888-126.782-256.888-283.493-41.194 205.137-199.96-48.426-282.347 253.564 133.306 253.565-133.306-48.429 282.347 205.139 199.96-283.493 41.194z" />
<glyph unicode="&#xe967;" glyph-name="remove" d="M832 480h-640c-17.673 0-32-14.327-32-32s14.327-32 32-32h640c17.67 0 32 14.327 32 32s-14.33 32-32 32z" />
<glyph unicode="&#xe968;" glyph-name="reply" d="M789.331 832c90.63 0 164.762-70.645 170.336-159.873l0.333-10.794v-362.664c0-90.63-70.643-164.762-159.872-170.336l-10.797-0.333h-21.331v-54.406c0-12.070-3.411-23.827-9.754-33.958l-5.299-7.27c-21.024-24.954-57.043-29.818-83.718-12.506l-6.464 4.787-122.605 103.354h-305.493c-90.632 0-164.763 70.643-170.331 159.872l-0.336 10.797v362.664c0 90.632 70.645 164.763 159.873 170.331l10.794 0.336h554.664zM704 73.594v118.406l83.341-0.032 8.8 0.243c52.832 3.296 94.944 45.024 99.456 97.152l0.403 9.306 0.032 360.675-0.243 8.797c-3.296 52.833-45.024 94.943-97.152 99.459l-9.306 0.401-561.471-0.211c-52.833-3.297-94.943-45.025-99.459-97.154l-0.401-9.302-0.031-360.674 0.242-8.8c3.297-52.832 45.025-94.944 97.154-99.456l9.302-0.403h328.869l137.347-115.942 3.117-2.464z" />
<glyph unicode="&#xe969;" glyph-name="report" d="M512 896c212.077 0 384-171.923 384-384l0.045-325.478c37.261-13.19 63.955-48.742 63.955-90.522 0-53.018-42.982-96-96-96h-704c-53.020 0-96 42.982-96 96 0 41.805 26.723 77.37 64.019 90.547l-0.019 325.453c0 212.077 171.923 384 384 384zM864 128h-704c-17.673 0-32-14.33-32-32 0-15.712 11.32-28.774 26.248-31.482l5.752-0.518h704c17.67 0 32 14.33 32 32 0 15.712-11.322 28.774-26.246 31.482l-5.754 0.518zM512 832c-172.081 0-312.436-135.828-319.704-306.119l-0.296-13.881v-320h640v320c0 172.080-135.827 312.436-306.119 319.704l-13.881 0.296zM479.347 710.431c3.552-17.313-7.603-34.227-24.916-37.779-51.263-10.517-92.009-51.287-103.139-103.343-3.695-17.283-20.701-28.298-37.983-24.602s-28.297 20.701-24.602 37.983c16.42 76.8 76.593 137.009 152.861 152.657 17.313 3.552 34.227-7.603 37.779-24.916z" />
<glyph unicode="&#xe96a;" glyph-name="restore" d="M576.001 864c-228.782 0-414.429-184.682-415.99-413.096l-70.794 90.591c-9.672 12.379-26.636 15.706-40.067 8.65l-4.85-3.135c-12.379-9.672-15.706-26.636-8.65-40.067l3.135-4.851 118.207-151.298c9.672-12.379 26.636-15.706 40.067-8.65l4.85 3.135 151.298 118.207c13.927 10.881 16.396 30.991 5.516 44.918-9.672 12.379-26.636 15.706-40.067 8.65l-4.851-3.135-90.209-70.45 0.405 4.532c0 189.15 149.192 343.455 336.321 351.657l15.679 0.343c194.406 0 351.999-157.596 351.999-352 0-194.406-157.594-352-351.999-352-94.656 0-183.294 37.491-248.902 103.098-12.497 12.499-32.758 12.499-45.255 0s-12.497-32.755 0-45.254c77.491-77.491 182.353-121.843 294.157-121.843 229.753 0 415.999 186.246 415.999 416 0 229.75-186.246 416-415.999 416zM543.997 640l0.515 5.752c2.71 14.927 15.775 26.248 31.485 26.248l5.752-0.516c14.928-2.709 26.248-15.775 26.248-31.484v-219.648l113.398-73.496 4.55-3.561c11.053-10.39 13.446-27.513 4.909-40.697-9.613-14.829-29.427-19.066-44.256-9.453l-142.602 92.388v254.467z" />
<glyph unicode="&#xe96b;" glyph-name="school" d="M512 544c-53.020 0-96-42.98-96-96s42.98-96 96-96c53.020 0 96 42.98 96 96s-42.98 96-96 96zM480 448c0 17.673 14.327 32 32 32s32-14.327 32-32c0-17.673-14.327-32-32-32s-32 14.327-32 32zM640.819 788.525l-112.819-55.83v-7.591c10.193-2.168 20.041-6.432 28.875-12.792l147.202-105.984c20.045-14.433 31.923-37.627 31.923-62.327h217.6c38.88 0 70.4-31.519 70.4-70.4v-403.2c0-38.88-31.52-70.4-70.4-70.4h-883.2c-38.88 0-70.4 31.52-70.4 70.4v403.2c0 38.881 31.519 70.4 70.4 70.4l217.6 0.001c0 24.7 11.88 47.893 31.925 62.326l147.2 105.984c8.834 6.36 18.682 10.624 28.875 12.792v137.416c0 9.492 9.97 15.682 18.477 11.472l126.342-62.522c9.498-4.7 9.498-18.244 0-22.945zM736 480v-320c0-17.67-14.33-32-32-32s-32 14.33-32 32v384.001c0 4.116-1.978 7.982-5.318 10.387l-147.203 105.985c-4.467 3.216-10.491 3.216-14.958-0.001l-147.2-105.984c-3.341-2.405-5.321-6.271-5.321-10.387v-384.001c0-17.67-14.327-32-32-32s-32 14.33-32 32v320h-217.6c-3.535 0-6.4-2.865-6.4-6.4v-403.2c0-3.539 2.865-6.4 6.4-6.4h883.2c3.533 0 6.4 2.861 6.4 6.4v403.2c0 3.535-2.867 6.4-6.4 6.4h-217.6z" />
<glyph unicode="&#xe96c;" glyph-name="search" d="M416 896c194.404 0 352-157.596 352-352 0-85.47-30.464-163.825-81.12-224.8l22.886-22.835 227.994-227.994c13.901-13.901 14.842-35.494 2.099-48.23-12.736-12.742-34.33-11.802-48.23 2.099l-250.829 250.88c-60.975-50.656-139.33-81.12-224.8-81.12-194.404 0-352 157.596-352 352s157.596 352 352 352zM416 832c-159.058 0-288-128.942-288-288s128.942-288 288-288c159.058 0 288 128.942 288 288s-128.942 288-288 288z" />
<glyph unicode="&#xe96d;" glyph-name="send" d="M115.121 905.35l6.937-2.788 842.89-396.653c13.472-6.341 24.314-17.183 30.656-30.657 13.971-29.698 3.136-64.694-24.090-81.592l-6.566-3.568-842.89-396.652c-13.35-6.285-28.46-7.763-42.773-4.179-31.842 7.955-52.093 38.49-47.96 70.266l1.393 7.341 95.283 381.133-95.283 381.131c-3.578 14.313-2.101 29.423 4.181 42.773 13.975 29.697 47.849 43.654 78.223 33.446zM869.702 416.060h-683.711l-91.185-364.713 774.896 364.713zM94.806 844.653l91.121-364.593h683.711l-774.832 364.593z" />
<glyph unicode="&#xe96e;" glyph-name="setting" d="M541.797 896c21.34 0 39.663-15.697 43.64-37.386l13.476-73.366c39.524-14.573 75.748-36.204 107.224-63.405l69.498 25.038c20.051 7.213 42.24-1.261 52.947-20.225l61.35-108.66c10.874-19.254 6.81-43.804-9.632-58.223l-55.232-48.503c3.578-20.538 5.446-41.681 5.446-63.27s-1.869-42.732-5.446-63.27l55.232-48.503c16.442-14.419 20.506-38.966 9.632-58.224l-61.35-108.659c-10.707-18.963-32.896-27.437-52.947-20.224l-69.498 25.037c-31.475-27.2-67.699-48.832-107.224-63.405l-13.476-73.37c-3.535-19.277-18.406-33.818-36.655-36.813l-6.986-0.57h-123.594c-18.968 0-35.554 12.403-41.798 30.394l-1.842 6.989-13.476 73.37c-39.524 14.573-75.751 36.205-107.225 63.405l-69.498-25.037c-17.824-6.413-37.332-0.429-48.967 14.298l-3.976 5.926-61.354 108.659c-9.664 17.114-7.529 38.413 4.612 53.064l5.019 5.16 55.235 48.503c-3.578 20.538-5.444 41.681-5.444 63.27s1.867 42.732 5.444 63.27l-55.235 48.503c-14.615 12.817-19.447 33.638-12.705 51.63l3.075 6.593 61.354 108.66c9.518 16.856 28.102 25.425 46.198 22.056l6.744-1.83 69.498-25.038c31.474 27.201 67.7 48.832 107.225 63.405l13.476 73.366c3.977 21.688 22.301 37.386 43.64 37.386h123.594zM523.441 827.077h-86.883l-17.143-93.492-35.96-13.259c-26.445-9.75-51.272-23.479-73.708-40.658l-13.169-10.717-28.975-25.042-35.657 12.846-52.172 19.036-42.908-75.747 70.442-61.924-6.806-39.073c-2.911-16.712-4.388-33.767-4.388-51.047 0-11.52 0.656-22.94 1.956-34.225l2.431-16.822 6.806-39.074-29.26-25.693-41.249-35.885 42.708-75.885 88.095 31.674 28.975-25.043c21.449-18.534 45.443-33.728 71.209-45.050l15.667-6.323 35.96-13.261 17.010-93.491 86.949-0.205 17.21 93.696 35.96 13.261c26.445 9.754 51.272 23.482 73.709 40.659l13.165 10.714 28.979 25.043 87.827-31.603 42.778 75.61-70.31 61.784 6.803 39.074c2.912 16.712 4.39 33.766 4.39 51.046 0 11.52-0.659 22.94-1.958 34.225l-2.432 16.822-6.803 39.073 70.31 61.786-42.778 75.677-87.827-31.676-28.979 25.042c-21.446 18.538-45.44 33.731-71.207 45.052l-15.667 6.323-35.96 13.259-17.143 93.492zM480 624c97.202 0 176-78.798 176-176s-78.798-176-176-176c-97.202 0-176 78.798-176 176s78.798 176 176 176zM480 560c-61.856 0-112-50.144-112-112s50.144-112 112-112c61.856 0 112 50.144 112 112s-50.144 112-112 112z" />
<glyph unicode="&#xe96f;" glyph-name="share" d="M768 832c70.694 0 128-57.308 128-128s-57.306-128-128-128c-45.12 0-84.787 23.345-107.578 58.614l-278.968-161.087c1.669-8.249 2.545-16.785 2.545-25.526 0-6.031-0.417-11.964-1.224-17.772l281.864-162.708c23.29 31.814 60.909 52.48 103.36 52.48 70.694 0 128-57.306 128-128s-57.306-128-128-128c-70.694 0-128 57.306-128 128 0 5.171 0.307 10.272 0.902 15.283l-282.965 163.292c-23.38-30.734-60.341-50.575-101.937-50.575-70.692 0-128 57.308-128 128s57.308 128 128 128c38.913 0 73.771-17.364 97.247-44.767l286.945 165.697c-0.128 2.34-0.192 4.698-0.192 7.070 0 70.692 57.306 128 128 128zM768 256c-35.347 0-64-28.653-64-64s28.653-64 64-64c35.347 0 64 28.653 64 64s-28.653 64-64 64zM256 512c-35.346 0-64-28.654-64-64s28.654-64 64-64c35.346 0 64 28.654 64 64s-28.654 64-64 64zM768 768c-35.347 0-64-28.654-64-64s28.653-64 64-64c35.347 0 64 28.654 64 64s-28.653 64-64 64z" />
<glyph unicode="&#xe970;" glyph-name="shortcut" d="M480 832c17.673 0 32-14.327 32-32s-14.327-32-32-32h-288c-32.822 0-59.873-24.707-63.569-56.536l-0.431-7.464v-128h-0.064l0.058-287.341c0.004-0.218 0.006-0.442 0.006-0.659v-160c0-32.819 24.707-59.872 56.536-63.571l7.464-0.429 583.462 0.429c31.834 3.699 56.538 30.752 56.538 63.571v288c0 17.673 14.33 32 32 32s32-14.327 32-32v-288c0-70.694-57.306-128-128-128h-576c-70.692 0-128 57.306-128 128v576c0 70.692 57.308 128 128 128h288zM864 896c49.901 0 90.906-38.073 95.558-86.755l0.442-9.245v-192c0-17.673-14.33-32-32-32-15.712 0-28.774 11.32-31.482 26.248l-0.518 5.752-0.038 177.344-3.418-4.019-366.627-357.391c-12.655-12.336-32.915-12.077-45.251 0.577-10.966 11.249-11.98 28.507-3.181 40.867l3.759 4.384 366.629 357.391c2.010 1.958 4.205 3.599 6.534 4.923l-182.406-0.076c-17.67 0-32 14.327-32 32 0 15.709 11.322 28.775 26.246 31.484l5.754 0.516h192z" />
<glyph unicode="&#xe971;" glyph-name="show_line" d="M608 256c17.673 0 32-14.33 32-32s-14.327-32-32-32h-448c-17.673 0-32 14.33-32 32s14.327 32 32 32h448zM864 512c17.67 0 32-14.327 32-32s-14.33-32-32-32h-704c-17.673 0-32 14.327-32 32s14.327 32 32 32h704zM864 768c17.67 0 32-14.327 32-32s-14.33-32-32-32h-704c-17.673 0-32 14.327-32 32s14.327 32 32 32h704z" />
<glyph unicode="&#xe972;" glyph-name="showpw" d="M512 704c182.72 0 345.286-76.325 487.693-228.976 12.915-13.846 14.995-34.274 5.862-50.252l-3.955-5.761-13.83-16.506c-121.331-140.335-279.923-210.504-475.77-210.504-203.378 0-366.579 75.667-489.601 227.005-11.944 14.693-12.627 35.216-2.426 50.535l4.335 5.479 16.519 17.277c138.421 141.136 295.479 211.704 471.173 211.704zM306.082 600.125l-9.184-3.774c-67.972-29.176-132.306-73.057-193.27-131.873l-16.543-16.412-3.053-3.075 0.956-1.026c64.488-74.467 140.098-126.616 227.807-156.785-35.507 43.924-56.795 99.885-56.795 160.819 0 56.971 18.61 109.595 50.082 152.125zM717.92 600.157l2.086-2.9c30.208-42.018 47.994-93.56 47.994-149.258 0-60.934-21.286-116.895-56.832-160.851 81.651 28.026 152.691 75.034 213.837 141.127l14.835 16.716-2.707 2.847c-68.762 70.045-141.683 120.671-219.213 152.319zM448 576c-35.347 0-64-28.654-64-64s28.653-64 64-64c35.346 0 64 28.654 64 64s-28.654 64-64 64z" />
<glyph unicode="&#xe973;" glyph-name="speaking_report" d="M810.669 896c47.123 0 85.331-38.205 85.331-85.333v-725.336c0-47.123-38.208-85.331-85.331-85.331h-597.336c-47.128 0-85.333 38.208-85.333 85.331v725.336c0 47.128 38.205 85.333 85.333 85.333h597.336zM810.669 832h-597.336c-10.309 0-18.911-7.313-20.9-17.034l-0.433-4.299v-725.336c0-10.31 7.313-18.906 17.034-20.896l4.299-0.435h597.336c10.31 0 18.906 7.315 20.896 17.037l0.435 4.294v725.336c0 10.309-7.315 18.911-17.037 20.9l-4.294 0.433zM672 256c17.67 0 32-14.33 32-32s-14.33-32-32-32h-320c-17.673 0-32 14.33-32 32s14.327 32 32 32h320zM693.702 696.987c10.515-9.814 13.203-26.815 7.021-40.164l-2.733-4.813-219.429-319.998c-8.226-11.997-22.389-15.294-33.759-8.593l-4.115 2.983-109.714 95.999c-12.118 10.604-14.575 30.661-5.485 44.8 8.079 12.567 22.561 16.228 34.19 9.439l4.209-3.039 88.429-77.376 202.839 295.764c9.459 13.8 26.72 16.038 38.547 4.998z" />
<glyph unicode="&#xe974;" glyph-name="speed" d="M512.872 800c68.477 0 135.044-13.722 196.491-39.964 16.256-6.941 23.802-25.743 16.864-41.997-6.944-16.253-25.747-23.802-41.997-16.86-53.533 22.861-111.553 34.82-171.358 34.82-233.889 0-416.872-184.219-416.872-415.967 0-42.842 8.461-88.858 25.549-138.074 3.872-11.155 13.821-19.322 25.77-21.427l6.122-0.531h717.119c14.586 0 27.373 8.947 31.891 21.958 17.088 49.222 25.549 95.232 25.549 138.074 0 94.058-17.485 167.805-57.158 227.005-9.837 14.682-5.907 34.559 8.774 44.397s34.56 5.911 44.397-8.771c47.635-71.092 67.987-156.919 67.987-262.632 0-50.337-9.754-103.367-29.088-159.060-12.557-36.173-45.517-61.19-83.501-64.582l-8.851-0.39h-717.119c-41.642 0-78.828 26.016-92.351 64.966-19.338 55.699-29.090 108.73-29.090 159.066 0 266.999 211.54 479.967 480.872 479.967zM802.272 661.020l-239.944-350.69c-24.847-36.32-74.429-45.613-110.745-20.768-4.065 2.784-7.864 5.933-11.347 9.421-31.114 31.112-31.114 81.558 0 112.673 3.483 3.484 7.282 6.636 11.347 9.418l350.689 239.947z" />
<glyph unicode="&#xe975;" glyph-name="starclub_face" d="M512 192l-186.164-97.869c-31.286-16.448-69.982-4.422-86.43 26.861-6.55 12.461-8.81 26.733-6.431 40.602l35.554 207.299-150.609 146.808c-25.311 24.672-25.829 65.191-1.157 90.502 9.825 10.079 22.698 16.638 36.627 18.662l208.138 30.244 93.082 188.605c15.644 31.696 54.019 44.71 85.716 29.067 12.621-6.229 22.838-16.445 29.067-29.067l93.079-188.605 208.141-30.244c34.976-5.083 59.213-37.559 54.131-72.538-2.022-13.928-8.582-26.802-18.662-36.626l-150.611-146.808 35.558-207.299c5.971-34.835-17.427-67.923-52.262-73.894-13.875-2.381-28.141-0.122-40.602 6.432l-186.163 97.869z" />
<glyph unicode="&#xe976;" glyph-name="starclub" d="M540.324 872.78c12.621-6.229 22.838-16.445 29.067-29.067l93.079-188.605 208.141-30.244c34.976-5.083 59.213-37.559 54.131-72.538-2.022-13.928-8.582-26.802-18.662-36.626l-150.611-146.808 35.558-207.299c5.971-34.835-17.427-67.923-52.262-73.894-13.875-2.381-28.141-0.122-40.602 6.432l-186.163 97.869-186.164-97.869c-31.286-16.448-69.982-4.422-86.43 26.861-6.55 12.461-8.81 26.733-6.431 40.602l35.554 207.299-150.609 146.808c-25.311 24.672-25.829 65.191-1.157 90.502 9.825 10.079 22.698 16.638 36.627 18.662l208.138 30.244 93.082 188.605c15.644 31.696 54.019 44.71 85.716 29.067zM619.973 596.612l-107.973 218.748-107.973-218.748-241.434-35.083 174.703-170.294-41.242-240.458 215.946 113.53 215.949-113.53-41.248 240.458 174.707 170.294-241.435 35.083z" />
<glyph unicode="&#xe977;" glyph-name="state" d="M704 448c0-106.039-85.961-192-192-192s-192 85.961-192 192c0 106.039 85.961 192 192 192s192-85.961 192-192z" />
<glyph unicode="&#xe978;" glyph-name="storage_box" d="M352 448c-17.673 0-32-14.327-32-32s14.327-32 32-32h320c17.67 0 32 14.327 32 32s-14.33 32-32 32h-320zM288 896c-53.020 0-96-42.98-96-96v-37.462c-37.286-13.179-64-48.739-64-90.538v-37.462c-37.286-13.179-64-48.739-64-90.538v-448c0-53.018 42.98-96 96-96h704c53.018 0 96 42.982 96 96v448c0 41.799-26.714 77.359-64 90.538v37.462c0 41.799-26.714 77.359-64 90.538v37.462c0 53.020-42.982 96-96 96h-448zM224 704h576c17.67 0 32-14.327 32-32v-32h-640v32c0 17.673 14.327 32 32 32zM768 768h-512v32c0 17.673 14.327 32 32 32h448c17.67 0 32-14.327 32-32v-32zM160 576h704c17.67 0 32-14.327 32-32v-448c0-17.67-14.33-32-32-32h-704c-17.673 0-32 14.33-32 32v448c0 17.673 14.327 32 32 32z" />
<glyph unicode="&#xe979;" glyph-name="storage" d="M928 448c15.712 0 28.774-11.32 31.482-26.248l0.518-5.752v-224c0-67.482-52.218-122.765-118.445-127.648l-9.555-0.352h-640c-70.692 0-128 57.306-128 128v224c0 17.673 14.327 32 32 32s32-14.327 32-32v-224c0-32.819 24.707-59.872 56.536-63.571l7.464-0.429 647.462 0.429c29.382 3.418 52.691 26.726 56.109 56.109l0.429 7.462v224c0 17.673 14.33 32 32 32zM528 896c17.673 0 32-14.327 32-32v-486.080l122.048 109.362 4.538 3.571c12.717 8.27 29.92 6.53 40.698-4.9s11.501-28.702 2.502-40.915l-3.834-4.321-177.434-160.001-4.938-3.827c-10.419-6.547-23.771-6.515-34.159 0.083l-4.92 3.846-174.564 160.003-3.811 4.339c-7.827 10.723-8.186 25.284-0.897 36.38l3.592 4.522 4.339 3.811c10.723 7.827 25.284 8.186 36.38 0.897l4.522-3.592 121.937-111.114v487.936c0 17.673 14.327 32 32 32z" />
</font>
</defs>
</svg>
